<?xml version="1.0" encoding="UTF-8"?>
<!DOCTYPE svg PUBLIC "-//W3C//DTD SVG 1.1//EN" "http://www.w3.org/Graphics/SVG/1.1/DTD/svg11.dtd">
<svg xmlns="http://www.w3.org/2000/svg" version="1.1" width="200px" height="200px" style="shape-rendering:geometricPrecision; text-rendering:geometricPrecision; image-rendering:optimizeQuality; fill-rule:evenodd; clip-rule:evenodd" xmlns:xlink="http://www.w3.org/1999/xlink">
<g><path style="opacity:1" fill="#0c053e" d="M -0.5,-0.5 C 66.1667,-0.5 132.833,-0.5 199.5,-0.5C 199.5,66.1667 199.5,132.833 199.5,199.5C 132.833,199.5 66.1667,199.5 -0.5,199.5C -0.5,132.833 -0.5,66.1667 -0.5,-0.5 Z"/></g>
<g><path style="opacity:1" fill="#381b6d" d="M 80.5,49.5 C 80.3338,55.5092 80.5005,61.5092 81,67.5C 82.3333,68.8333 83.6667,70.1667 85,71.5C 85.3333,79.5 85.6667,87.5 86,95.5C 87.451,97.4641 89.2843,98.7974 91.5,99.5C 94.518,99.7998 96.518,101.467 97.5,104.5C 97.3333,104.833 97.1667,105.167 97,105.5C 95.6667,104.167 94.3333,102.833 93,101.5C 92.6174,102.056 92.1174,102.389 91.5,102.5C 90.8333,102.5 90.1667,102.5 89.5,102.5C 87.1667,101.833 84.8333,101.167 82.5,100.5C 83.675,100.719 84.675,100.386 85.5,99.5C 84.8075,98.4822 84.1408,97.4822 83.5,96.5C 83.6664,88.16 83.4997,79.8267 83,71.5C 79.1626,68.9153 78.8292,69.2486 82,72.5C 82.4966,74.8098 82.6633,77.1432 82.5,79.5C 81.2058,75.7771 80.0391,75.7771 79,79.5C 77.4912,77.0807 75.3245,76.0807 72.5,76.5C 72.6495,77.552 72.4828,78.552 72,79.5C 71.7685,75.4452 71.2685,71.4452 70.5,67.5C 72.0436,66.3776 73.377,66.711 74.5,68.5C 77.2433,66.3019 77.0767,64.3019 74,62.5C 72.951,64.1066 71.451,64.7733 69.5,64.5C 69.6495,63.448 69.4828,62.448 69,61.5C 67.1884,64.0457 67.0217,66.7123 68.5,69.5C 68.6495,70.552 68.4828,71.552 68,72.5C 67.1841,71.1772 66.0174,70.5106 64.5,70.5C 64.1667,70.5 63.8333,70.5 63.5,70.5C 63.1774,66.774 63.5108,63.1073 64.5,59.5C 68.9289,61.0426 70.5956,59.3759 69.5,54.5C 71.1238,54.3601 72.2904,55.0267 73,56.5C 73.3333,54.8333 73.6667,53.1667 74,51.5C 75.4415,53.3049 75.6082,55.3049 74.5,57.5C 73.325,57.281 72.325,57.6143 71.5,58.5C 74.5573,60.5558 76.8907,63.2224 78.5,66.5C 79.0779,59.4593 79.7445,53.7926 80.5,49.5 Z"/></g>
<g><path style="opacity:1" fill="#b9b2dd" d="M 76.5,54.5 C 78.337,54.6395 78.6704,55.3061 77.5,56.5C 76.7025,56.0431 76.3691,55.3764 76.5,54.5 Z"/></g>
<g><path style="opacity:1" fill="#ddd4e9" d="M 61.5,73.5 C 60.8333,73.5 60.1667,73.5 59.5,73.5C 60.1667,69.5 60.8333,69.5 61.5,73.5 Z"/></g>
<g><path style="opacity:1" fill="#1a054d" d="M 139.5,73.5 C 137.643,70.9824 135.81,70.9824 134,73.5C 134.031,78.1234 133.198,82.4568 131.5,86.5C 119.851,86.1548 114.851,91.8215 116.5,103.5C 115.141,102.993 114.141,101.993 113.5,100.5C 110.557,101.244 107.557,101.744 104.5,102C 103.549,102.718 103.383,103.551 104,104.5C 105.292,103.209 106.458,103.209 107.5,104.5C 105.537,105.96 103.704,107.627 102,109.5C 101.233,135.167 101.4,141.834 102.5,129.5C 103.268,130.263 103.768,131.263 104,132.5C 104.333,136.833 104.667,141.167 105,145.5C 105.143,133.451 105.643,122.784 106.5,113.5C 105.857,124.552 106.524,135.219 108.5,145.5C 105.594,146.546 102.76,147.88 100,149.5C 97.8295,148.666 95.8295,148.333 94,148.5C 93.3333,151.167 92.6667,151.167 92,148.5C 90.078,152.587 88.578,152.42 87.5,148C 88.587,144.447 88.4203,140.614 87,136.5C 86.3109,135.643 85.4776,134.977 84.5,134.5C 83.2798,135.711 82.1131,135.711 81,134.5C 79.9591,137.113 78.4591,139.446 76.5,141.5C 75.6919,141.192 75.0253,140.692 74.5,140C 75.6405,139.259 75.6405,138.425 74.5,137.5C 75.325,136.614 76.325,136.281 77.5,136.5C 77.5,135.5 77.5,134.5 77.5,133.5C 79.6456,133.304 79.8122,132.304 78,130.5C 76.5421,129.253 75.0421,129.253 73.5,130.5C 72.5748,129.643 71.9081,128.643 71.5,127.5C 73.2624,127.357 74.9291,127.691 76.5,128.5C 77.2975,128.043 77.6309,127.376 77.5,126.5C 76.8333,125.833 76.1667,125.167 75.5,124.5C 76.343,122.827 77.6763,121.66 79.5,121C 77.0966,120.37 75.2633,121.203 74,123.5C 73.5006,118.177 73.334,112.844 73.5,107.5C 74.5,107.5 75.5,107.5 76.5,107.5C 79.5275,109.14 82.8609,109.974 86.5,110C 87.7051,111.376 89.0384,112.542 90.5,113.5C 90.1679,124.52 90.5012,135.52 91.5,146.5C 92.8238,135.34 92.8238,124.34 91.5,113.5C 88.8075,109.13 84.8075,107.297 79.5,108C 78.2899,106.961 77.2899,105.794 76.5,104.5C 77.1667,104.5 77.5,104.167 77.5,103.5C 80.6045,106.034 84.2712,107.201 88.5,107C 89.7893,108.802 91.4559,109.969 93.5,110.5C 90.7869,105.265 86.4536,103.098 80.5,104C 79.5291,102.519 78.1958,101.685 76.5,101.5C 68.4319,100.82 60.2652,100.153 52,99.5C 51.5357,100.094 51.369,100.761 51.5,101.5C 51.6932,103.086 52.0266,104.753 52.5,106.5C 53.8123,105.54 55.1456,105.706 56.5,107C 55.3492,109.464 54.3492,111.964 53.5,114.5C 54.5,114.5 55.5,114.5 56.5,114.5C 56.2627,113.209 56.596,112.209 57.5,111.5C 58.7335,114.535 58.7335,117.535 57.5,120.5C 55.5471,121.999 53.8804,121.665 52.5,119.5C 51.094,120.951 49.594,122.284 48,123.5C 47.8333,123.167 47.6667,122.833 47.5,122.5C 49.4885,120.691 50.8218,118.524 51.5,116C 51.1667,115.167 50.8333,114.333 50.5,113.5C 49.5726,115.113 48.7393,116.779 48,118.5C 47.8333,117.667 47.6667,116.833 47.5,116C 48.5682,113.412 49.9015,110.912 51.5,108.5C 50.3493,107.269 49.1827,107.269 48,108.5C 46.4644,102.242 48.2978,97.2421 53.5,93.5C 52.2192,93.9839 51.2192,93.3173 50.5,91.5C 54.8474,91.3197 58.1807,93.153 60.5,97C 66.1569,97.4994 71.8236,97.6661 77.5,97.5C 80.1675,102.028 84.1675,103.695 89.5,102.5C 91.4611,104.963 93.6278,107.297 96,109.5C 97.3331,157.5 97.9997,157.5 98,109.5C 95.6278,107.297 93.4611,104.963 91.5,102.5C 92.1174,102.389 92.6174,102.056 93,101.5C 94.3333,102.833 95.6667,104.167 97,105.5C 97.1667,105.167 97.3333,104.833 97.5,104.5C 96.518,101.467 94.518,99.7998 91.5,99.5C 90.2073,97.7041 88.7073,96.0375 87,94.5C 86.6667,86.5 86.3333,78.5 86,70.5C 84.6667,69.1667 83.3333,67.8333 82,66.5C 81.5006,60.8431 81.3339,55.1764 81.5,49.5C 83.4167,48.254 85.25,47.5873 87,47.5C 87.4955,49.4727 87.6621,51.4727 87.5,53.5C 88.7414,51.4913 90.4081,49.8246 92.5,48.5C 93.3857,49.325 93.719,50.325 93.5,51.5C 95.5,51.5 97.5,51.5 99.5,51.5C 100.117,51.6107 100.617,51.944 101,52.5C 101.499,57.4889 101.666,62.4889 101.5,67.5C 101.5,74.8333 101.5,82.1667 101.5,89.5C 99.8333,89.5 98.1667,89.5 96.5,89.5C 96.5,83.1667 96.5,76.8333 96.5,70.5C 95.4382,68.2435 93.7715,67.0768 91.5,67C 92.7051,68.3756 94.0384,69.5423 95.5,70.5C 95.1739,79.0168 95.5073,87.3501 96.5,95.5C 100.167,96.8333 103.833,96.8333 107.5,95.5C 108.483,91.7016 108.817,87.7016 108.5,83.5C 111.5,83.5 114.5,83.5 117.5,83.5C 117.335,79.8183 117.501,76.1516 118,72.5C 122.753,68.5483 122.253,65.2149 116.5,62.5C 115.829,61.1529 115.829,59.9862 116.5,59C 115.552,58.5172 114.552,58.3505 113.5,58.5C 112.599,54.8455 111.599,51.1789 110.5,47.5C 109.5,47.8333 108.833,48.5 108.5,49.5C 110.518,53.3958 111.851,57.5625 112.5,62C 112.052,65.0671 110.719,67.5671 108.5,69.5C 108.167,69.5 107.833,69.5 107.5,69.5C 107.059,65.1681 106.726,60.5014 106.5,55.5C 106.44,54.9569 106.107,54.6236 105.5,54.5C 104.505,59.7921 104.172,65.1254 104.5,70.5C 103.833,71.5 103.167,72.5 102.5,73.5C 102.5,71.5 102.5,69.5 102.5,67.5C 102.5,62.1667 102.5,56.8333 102.5,51.5C 103.434,50.4324 103.768,49.099 103.5,47.5C 108.848,46.3044 114.014,46.3044 119,47.5C 120.171,50.0378 121.671,50.5378 123.5,49C 123.167,48.6667 122.833,48.3333 122.5,48C 123.744,47.5439 124.577,48.0439 125,49.5C 125.308,48.6919 125.808,48.0253 126.5,47.5C 126.285,50.003 126.952,52.503 128.5,55C 130.101,55.2734 131.601,55.7734 133,56.5C 135.091,55.5004 136.757,56.1671 138,58.5C 138.229,61.4576 139.396,63.9576 141.5,66C 140.78,68.4908 140.113,70.9908 139.5,73.5 Z"/></g>
<g><path style="opacity:1" fill="#624591" d="M 123.5,76.5 C 124.122,75.3734 124.955,74.3734 126,73.5C 126.189,68.7492 126.855,64.0826 128,59.5C 128.414,59.9574 128.914,60.2907 129.5,60.5C 130.167,59.5 130.833,58.5 131.5,57.5C 132.443,59.4698 131.776,60.9698 129.5,62C 131.904,62.5079 132.571,63.6745 131.5,65.5C 130.522,65.0233 129.689,64.3567 129,63.5C 128.667,66.8333 128.333,70.1667 128,73.5C 126.871,75.1412 125.371,76.1412 123.5,76.5 Z"/></g>
<g><path style="opacity:1" fill="#7e63b1" d="M 96.5,70.5 C 96.1667,70.5 95.8333,70.5 95.5,70.5C 94.0384,69.5423 92.7051,68.3756 91.5,67C 93.7715,67.0768 95.4382,68.2435 96.5,70.5 Z"/></g>
<g><path style="opacity:1" fill="#a083d2" d="M 124.5,71.5 C 124.167,71.5 123.833,71.5 123.5,71.5C 123.797,67.2325 123.464,63.0659 122.5,59C 123.113,56.8526 123.779,54.686 124.5,52.5C 124.6,58.6525 124.6,64.9858 124.5,71.5 Z"/></g>
<g><path style="opacity:1" fill="#6f51a7" d="M 89.5,70.5 C 83.6309,68.0012 81.9642,63.6679 84.5,57.5C 84.6213,60.0018 84.7879,62.6685 85,65.5C 86.7073,67.0375 88.2073,68.7041 89.5,70.5 Z"/></g>
<g><path style="opacity:1" fill="#412078" d="M 116.5,62.5 C 115.494,62.9377 115.494,63.6043 116.5,64.5C 115.711,64.7828 115.044,65.2828 114.5,66C 115.337,67.0113 115.67,68.1779 115.5,69.5C 113.05,69.298 110.717,69.6314 108.5,70.5C 108.5,70.1667 108.5,69.8333 108.5,69.5C 110.719,67.5671 112.052,65.0671 112.5,62C 111.851,57.5625 110.518,53.3958 108.5,49.5C 108.833,48.5 109.5,47.8333 110.5,47.5C 111.599,51.1789 112.599,54.8455 113.5,58.5C 114.552,58.3505 115.552,58.5172 116.5,59C 115.829,59.9862 115.829,61.1529 116.5,62.5 Z"/></g>
<g><path style="opacity:1" fill="#8a7ac5" d="M 107.5,57.5 C 109.337,57.6395 109.67,58.3061 108.5,59.5C 107.702,59.0431 107.369,58.3764 107.5,57.5 Z"/></g>
<g><path style="opacity:1" fill="#c1afeb" d="M 102.5,51.5 C 102.5,56.8333 102.5,62.1667 102.5,67.5C 102.167,67.5 101.833,67.5 101.5,67.5C 101.666,62.4889 101.499,57.4889 101,52.5C 100.617,51.944 100.117,51.6107 99.5,51.5C 98.4376,50.4246 98.4376,49.4246 99.5,48.5C 100.288,49.7701 101.288,50.7701 102.5,51.5 Z"/></g>
<g><path style="opacity:1" fill="#65459a" d="M 87.5,53.5 C 87.3354,56.5184 87.502,59.5184 88,62.5C 89.8282,64.4291 89.4948,64.7624 87,63.5C 87.2375,58.9804 86.0708,54.9804 83.5,51.5C 83.8333,51.1667 84.1667,50.8333 84.5,50.5C 85.2876,51.7701 86.2876,52.7701 87.5,53.5 Z"/></g>
<g><path style="opacity:1" fill="#d3b5eb" d="M 117.5,51.5 C 119.337,51.6395 119.67,52.3061 118.5,53.5C 117.702,53.0431 117.369,52.3764 117.5,51.5 Z"/></g>
<g><path style="opacity:1" fill="#9271c3" d="M 68.5,69.5 C 69.3213,72.6414 69.8213,75.9748 70,79.5C 71.3756,80.7051 72.5423,82.0384 73.5,83.5C 69.236,82.1364 67.4026,79.1364 68,74.5C 66.6244,73.2949 65.4577,71.9616 64.5,70.5C 66.0174,70.5106 67.1841,71.1772 68,72.5C 68.4828,71.552 68.6495,70.552 68.5,69.5 Z"/></g>
<g><path style="opacity:1" fill="#d3bff3" d="M 92.5,72.5 C 95.0009,72.5109 95.1676,73.1776 93,74.5C 92.5357,73.9056 92.369,73.2389 92.5,72.5 Z"/></g>
<g><path style="opacity:1" fill="#6b4194" d="M 139.5,73.5 C 139.167,74.5 138.5,75.1667 137.5,75.5C 137.217,74.7109 136.717,74.0442 136,73.5C 135.667,76.8333 135.333,80.1667 135,83.5C 134.34,85.3237 133.173,86.657 131.5,87.5C 131.5,87.1667 131.5,86.8333 131.5,86.5C 133.198,82.4568 134.031,78.1234 134,73.5C 135.81,70.9824 137.643,70.9824 139.5,73.5 Z"/></g>
<g><path style="opacity:1" fill="#9d7fd4" d="M 83.5,96.5 C 82.5111,91.0247 82.1778,85.358 82.5,79.5C 82.6633,77.1432 82.4966,74.8098 82,72.5C 78.8292,69.2486 79.1626,68.9153 83,71.5C 83.4997,79.8267 83.6664,88.16 83.5,96.5 Z"/></g>
<g><path style="opacity:1" fill="#19044f" d="M 63.5,70.5 C 63.8333,70.5 64.1667,70.5 64.5,70.5C 65.4577,71.9616 66.6244,73.2949 68,74.5C 67.4026,79.1364 69.236,82.1364 73.5,83.5C 75.2646,84.4614 77.2646,84.7947 79.5,84.5C 79.6495,85.552 79.4828,86.552 79,87.5C 76.6194,86.565 74.1194,86.2317 71.5,86.5C 71.1583,85.6618 70.4916,85.3284 69.5,85.5C 66.9125,83.0795 64.9125,80.2462 63.5,77C 61.1667,76.3333 58.8333,76.3333 56.5,77C 58.5,77.3333 60.5,77.6667 62.5,78C 63.056,78.3826 63.3893,78.8826 63.5,79.5C 61.5,79.5 59.5,79.5 57.5,79.5C 57.1826,82.5719 57.5159,85.5719 58.5,88.5C 60.1422,89.7987 61.4755,91.2987 62.5,93C 62.1639,94.0299 61.4972,94.5299 60.5,94.5C 58.6366,92.2947 56.3033,90.9613 53.5,90.5C 53.6655,86.4862 53.4988,82.4862 53,78.5C 51.3005,77.5939 49.4672,77.2606 47.5,77.5C 47.5,76.5 47.5,75.5 47.5,74.5C 51.4517,73.7279 55.4517,73.3946 59.5,73.5C 60.1667,73.5 60.8333,73.5 61.5,73.5C 63.0481,73.1788 63.7148,72.1788 63.5,70.5 Z"/></g>
<g><path style="opacity:1" fill="#9370c7" d="M 80.5,49.5 C 80.8333,49.5 81.1667,49.5 81.5,49.5C 81.3339,55.1764 81.5006,60.8431 82,66.5C 83.3333,67.8333 84.6667,69.1667 86,70.5C 86.3333,78.5 86.6667,86.5 87,94.5C 88.7073,96.0375 90.2073,97.7041 91.5,99.5C 89.2843,98.7974 87.451,97.4641 86,95.5C 85.6667,87.5 85.3333,79.5 85,71.5C 83.6667,70.1667 82.3333,68.8333 81,67.5C 80.5005,61.5092 80.3338,55.5092 80.5,49.5 Z"/></g>
<g><path style="opacity:1" fill="#6e4ca7" d="M 69.5,85.5 C 66.5,84.5 64.5,82.5 63.5,79.5C 63.3893,78.8826 63.056,78.3826 62.5,78C 60.5,77.6667 58.5,77.3333 56.5,77C 58.8333,76.3333 61.1667,76.3333 63.5,77C 64.9125,80.2462 66.9125,83.0795 69.5,85.5 Z"/></g>
<g><path style="opacity:1" fill="#1d0450" d="M 116.5,64.5 C 117.962,65.4577 119.295,66.6244 120.5,68C 119.333,69.1667 118.167,70.3333 117,71.5C 116.501,75.1516 116.335,78.8183 116.5,82.5C 113.833,82.5 111.167,82.5 108.5,82.5C 108.5,78.5 108.5,74.5 108.5,70.5C 110.717,69.6314 113.05,69.298 115.5,69.5C 115.67,68.1779 115.337,67.0113 114.5,66C 115.044,65.2828 115.711,64.7828 116.5,64.5 Z"/></g>
<g><path style="opacity:1" fill="#9578c4" d="M 91.5,80.5 C 93.337,80.6395 93.6704,81.3061 92.5,82.5C 91.7025,82.0431 91.3691,81.3764 91.5,80.5 Z"/></g>
<g><path style="opacity:1" fill="#7051a3" d="M 123.5,71.5 C 123.833,71.5 124.167,71.5 124.5,71.5C 120.76,74.6427 119.593,78.6427 121,83.5C 122.043,81.1671 122.876,78.8337 123.5,76.5C 123.663,78.8568 123.497,81.1902 123,83.5C 120.667,85.8333 118.333,88.1667 116,90.5C 115.667,93.1667 115.333,95.8333 115,98.5C 114.617,99.056 114.117,99.3893 113.5,99.5C 113.5,99.1667 113.5,98.8333 113.5,98.5C 112.448,93.4624 113.948,89.4624 118,86.5C 118.333,82.8333 118.667,79.1667 119,75.5C 120.371,73.9586 121.871,72.6253 123.5,71.5 Z"/></g>
<g><path style="opacity:1" fill="#9676c8" d="M 116.5,62.5 C 122.253,65.2149 122.753,68.5483 118,72.5C 117.501,76.1516 117.335,79.8183 117.5,83.5C 114.5,83.5 111.5,83.5 108.5,83.5C 108.817,87.7016 108.483,91.7016 107.5,95.5C 107.5,86.8333 107.5,78.1667 107.5,69.5C 107.833,69.5 108.167,69.5 108.5,69.5C 108.5,69.8333 108.5,70.1667 108.5,70.5C 108.5,74.5 108.5,78.5 108.5,82.5C 111.167,82.5 113.833,82.5 116.5,82.5C 116.335,78.8183 116.501,75.1516 117,71.5C 118.167,70.3333 119.333,69.1667 120.5,68C 119.295,66.6244 117.962,65.4577 116.5,64.5C 115.494,63.6043 115.494,62.9377 116.5,62.5 Z"/></g>
<g><path style="opacity:1" fill="#bc9ae7" d="M 111.5,76.5 C 115.31,77.7542 115.31,78.7542 111.5,79.5C 111.5,78.5 111.5,77.5 111.5,76.5 Z"/></g>
<g><path style="opacity:1" fill="#aa85d2" d="M 111.5,71.5 C 113.337,71.6395 113.67,72.3061 112.5,73.5C 111.702,73.0431 111.369,72.3764 111.5,71.5 Z"/></g>
<g><path style="opacity:1" fill="#964070" d="M 129.5,80.5 C 131.048,80.8212 131.715,81.8212 131.5,83.5C 128.752,83.5983 128.086,82.5983 129.5,80.5 Z"/></g>
<g><path style="opacity:1" fill="#8264b4" d="M 89.5,70.5 C 90.583,76.0016 90.583,81.6683 89.5,87.5C 89.3187,90.1632 89.9854,92.4966 91.5,94.5C 88.0596,93.5514 86.7262,91.2181 87.5,87.5C 89.1204,82.0358 89.787,76.3691 89.5,70.5 Z"/></g>
<g><path style="opacity:1" fill="#604295" d="M 95.5,56.5 C 96.3213,59.6414 96.8213,62.9748 97,66.5C 98,67.5 99,68.5 100,69.5C 100.83,75.5276 100.664,81.5276 99.5,87.5C 99.016,76.847 97.6826,66.5137 95.5,56.5 Z"/></g>
<g><path style="opacity:1" fill="#a584d8" d="M 101.5,67.5 C 101.833,67.5 102.167,67.5 102.5,67.5C 102.5,69.5 102.5,71.5 102.5,73.5C 102.5,79.1667 102.5,84.8333 102.5,90.5C 100.5,90.5 98.5,90.5 96.5,90.5C 96.5,92.1667 96.5,93.8333 96.5,95.5C 95.5073,87.3501 95.1739,79.0168 95.5,70.5C 95.8333,70.5 96.1667,70.5 96.5,70.5C 96.5,76.8333 96.5,83.1667 96.5,89.5C 98.1667,89.5 99.8333,89.5 101.5,89.5C 101.5,82.1667 101.5,74.8333 101.5,67.5 Z"/></g>
<g><path style="opacity:1" fill="#9d4085" d="M 91.5,86.5 C 93.0481,86.8212 93.7148,87.8212 93.5,89.5C 90.7524,89.5983 90.0857,88.5983 91.5,86.5 Z"/></g>
<g><path style="opacity:1" fill="#9f86cc" d="M 131.5,86.5 C 131.5,86.8333 131.5,87.1667 131.5,87.5C 119.93,87.7648 115.264,93.7648 117.5,105.5C 114.15,105.335 110.817,105.502 107.5,106C 106.944,106.383 106.611,106.883 106.5,107.5C 105.206,108.29 104.039,109.29 103,110.5C 102.5,116.825 102.334,123.158 102.5,129.5C 101.4,141.834 101.233,135.167 102,109.5C 103.704,107.627 105.537,105.96 107.5,104.5C 110.713,104.81 113.713,104.477 116.5,103.5C 114.851,91.8215 119.851,86.1548 131.5,86.5 Z"/></g>
<g><path style="opacity:1" fill="#230955" d="M 137.5,75.5 C 136.431,79.1273 137.431,79.4607 140.5,76.5C 141.919,80.0107 143.585,83.3441 145.5,86.5C 146.672,86.9186 147.672,87.5853 148.5,88.5C 145.843,89.2592 143.177,89.9258 140.5,90.5C 139.348,92.3971 139.681,94.0638 141.5,95.5C 137.445,95.1758 133.445,95.5091 129.5,96.5C 129.624,97.1067 129.957,97.44 130.5,97.5C 128.645,99.0331 126.812,100.7 125,102.5C 124.617,101.944 124.117,101.611 123.5,101.5C 124.543,98.9438 126.21,96.7772 128.5,95C 140.302,93.2056 140.302,92.5389 128.5,93C 126.667,94.8333 124.833,96.6667 123,98.5C 122.503,100.81 122.337,103.143 122.5,105.5C 121.833,104.167 121.167,102.833 120.5,101.5C 120.216,99.5853 120.549,97.9187 121.5,96.5C 123.296,95.2073 124.963,93.7073 126.5,92C 135.127,92.7071 138.96,88.8737 138,80.5C 137.853,87.972 134.02,91.1387 126.5,90C 124.627,91.7038 122.96,93.5372 121.5,95.5C 119.829,98.608 118.829,102.108 118.5,106C 115.081,106.248 111.747,106.748 108.5,107.5C 107.833,107.5 107.167,107.5 106.5,107.5C 106.611,106.883 106.944,106.383 107.5,106C 110.817,105.502 114.15,105.335 117.5,105.5C 115.264,93.7648 119.93,87.7648 131.5,87.5C 133.173,86.657 134.34,85.3237 135,83.5C 135.333,80.1667 135.667,76.8333 136,73.5C 136.717,74.0442 137.217,74.7109 137.5,75.5 Z"/></g>
<g><path style="opacity:1" fill="#a683ce" d="M 140.5,82.5 C 141.573,83.2506 141.74,84.2506 141,85.5C 139.272,84.6477 139.105,83.6477 140.5,82.5 Z"/></g>
<g><path style="opacity:1" fill="#744fa7" d="M 121.5,96.5 C 121.5,96.1667 121.5,95.8333 121.5,95.5C 122.96,93.5372 124.627,91.7038 126.5,90C 134.02,91.1387 137.853,87.972 138,80.5C 138.96,88.8737 135.127,92.7071 126.5,92C 124.963,93.7073 123.296,95.2073 121.5,96.5 Z"/></g>
<g><path style="opacity:1" fill="#9173c1" d="M 53.5,90.5 C 56.3033,90.9613 58.6366,92.2947 60.5,94.5C 60.6107,95.1174 60.944,95.6174 61.5,96C 67.0158,96.1733 72.3491,96.6733 77.5,97.5C 71.8236,97.6661 66.1569,97.4994 60.5,97C 58.1807,93.153 54.8474,91.3197 50.5,91.5C 49.4376,90.4246 49.4376,89.4246 50.5,88.5C 51.2652,89.6119 52.2652,90.2786 53.5,90.5 Z"/></g>
<g><path style="opacity:1" fill="#2f0f63" d="M 106.5,55.5 C 106.726,60.5014 107.059,65.1681 107.5,69.5C 107.5,78.1667 107.5,86.8333 107.5,95.5C 103.833,96.8333 100.167,96.8333 96.5,95.5C 96.5,93.8333 96.5,92.1667 96.5,90.5C 98.5,90.5 100.5,90.5 102.5,90.5C 102.5,84.8333 102.5,79.1667 102.5,73.5C 103.167,72.5 103.833,71.5 104.5,70.5C 104.5,77.8333 104.5,85.1667 104.5,92.5C 102.473,92.3379 100.473,92.5045 98.5,93C 100.81,93.4966 103.143,93.6633 105.5,93.5C 105.171,80.6557 105.505,67.989 106.5,55.5 Z"/></g>
<g><path style="opacity:1" fill="#66459c" d="M 106.5,55.5 C 105.505,67.989 105.171,80.6557 105.5,93.5C 103.143,93.6633 100.81,93.4966 98.5,93C 100.473,92.5045 102.473,92.3379 104.5,92.5C 104.5,85.1667 104.5,77.8333 104.5,70.5C 104.172,65.1254 104.505,59.7921 105.5,54.5C 106.107,54.6236 106.44,54.9569 106.5,55.5 Z"/></g>
<g><path style="opacity:1" fill="#964c79" d="M 141.5,91.5 C 142.5,91.5 143.5,91.5 144.5,91.5C 143.754,95.31 142.754,95.31 141.5,91.5 Z"/></g>
<g><path style="opacity:1" fill="#795aab" d="M 123.5,101.5 C 123.768,103.099 123.434,104.432 122.5,105.5C 122.337,103.143 122.503,100.81 123,98.5C 124.833,96.6667 126.667,94.8333 128.5,93C 140.302,92.5389 140.302,93.2056 128.5,95C 126.21,96.7772 124.543,98.9438 123.5,101.5 Z"/></g>
<g><path style="opacity:1" fill="#73499d" d="M 130.5,97.5 C 129.957,97.44 129.624,97.1067 129.5,96.5C 133.445,95.5091 137.445,95.1758 141.5,95.5C 143.591,95.6816 145.591,95.3482 147.5,94.5C 148.711,95.2739 148.711,96.1072 147.5,97C 141.843,97.4994 136.176,97.6661 130.5,97.5 Z"/></g>
<g><path style="opacity:1" fill="#25085c" d="M 82.5,79.5 C 82.1778,85.358 82.5111,91.0247 83.5,96.5C 84.1408,97.4822 84.8075,98.4822 85.5,99.5C 84.675,100.386 83.675,100.719 82.5,100.5C 81.078,99.075 79.4113,98.075 77.5,97.5C 72.3491,96.6733 67.0158,96.1733 61.5,96C 60.944,95.6174 60.6107,95.1174 60.5,94.5C 61.4972,94.5299 62.1639,94.0299 62.5,93C 61.4755,91.2987 60.1422,89.7987 58.5,88.5C 57.5159,85.5719 57.1826,82.5719 57.5,79.5C 59.5,79.5 61.5,79.5 63.5,79.5C 64.5,82.5 66.5,84.5 69.5,85.5C 70.4916,85.3284 71.1583,85.6618 71.5,86.5C 71.1667,86.5 70.8333,86.5 70.5,86.5C 65.9115,86.8805 65.5782,88.0472 69.5,90C 67.8446,91.4443 67.178,93.2776 67.5,95.5C 70.9783,95.8158 74.3117,95.3158 77.5,94C 78.5361,92.2245 78.5361,90.3911 77.5,88.5C 78.1499,88.8039 78.8165,89.1373 79.5,89.5C 80.4656,87.604 80.7989,85.604 80.5,83.5C 78.1667,83.5 75.8333,83.5 73.5,83.5C 72.5423,82.0384 71.3756,80.7051 70,79.5C 69.8213,75.9748 69.3213,72.6414 68.5,69.5C 67.0217,66.7123 67.1884,64.0457 69,61.5C 69.4828,62.448 69.6495,63.448 69.5,64.5C 71.451,64.7733 72.951,64.1066 74,62.5C 77.0767,64.3019 77.2433,66.3019 74.5,68.5C 73.377,66.711 72.0436,66.3776 70.5,67.5C 71.2685,71.4452 71.7685,75.4452 72,79.5C 72.4828,78.552 72.6495,77.552 72.5,76.5C 75.3245,76.0807 77.4912,77.0807 79,79.5C 80.0391,75.7771 81.2058,75.7771 82.5,79.5 Z"/></g>
<g><path style="opacity:1" fill="#1b0440" d="M 70.5,86.5 C 72.8333,87.1667 75.1667,87.8333 77.5,88.5C 78.5361,90.3911 78.5361,92.2245 77.5,94C 74.3117,95.3158 70.9783,95.8158 67.5,95.5C 67.178,93.2776 67.8446,91.4443 69.5,90C 65.5782,88.0472 65.9115,86.8805 70.5,86.5 Z"/></g>
<g><path style="opacity:1" fill="#ae467b" d="M 69.5,91.5 C 72.9571,91.6672 73.2904,92.6672 70.5,94.5C 69.6143,93.675 69.281,92.675 69.5,91.5 Z"/></g>
<g><path style="opacity:1" fill="#8663be" d="M 73.5,83.5 C 75.8333,83.5 78.1667,83.5 80.5,83.5C 80.7989,85.604 80.4656,87.604 79.5,89.5C 78.8165,89.1373 78.1499,88.8039 77.5,88.5C 75.1667,87.8333 72.8333,87.1667 70.5,86.5C 70.8333,86.5 71.1667,86.5 71.5,86.5C 74.1194,86.2317 76.6194,86.565 79,87.5C 79.4828,86.552 79.6495,85.552 79.5,84.5C 77.2646,84.7947 75.2646,84.4614 73.5,83.5 Z"/></g>
<g><path style="opacity:1" fill="#8e6bc2" d="M 76.5,101.5 C 68.1667,101.5 59.8333,101.5 51.5,101.5C 51.369,100.761 51.5357,100.094 52,99.5C 60.2652,100.153 68.4319,100.82 76.5,101.5 Z"/></g>
<g><path style="opacity:1" fill="#947ac6" d="M 77.5,97.5 C 79.4113,98.075 81.078,99.075 82.5,100.5C 84.8333,101.167 87.1667,101.833 89.5,102.5C 84.1675,103.695 80.1675,102.028 77.5,97.5 Z"/></g>
<g><path style="opacity:1" fill="#452279" d="M 116.5,103.5 C 113.713,104.477 110.713,104.81 107.5,104.5C 106.458,103.209 105.292,103.209 104,104.5C 103.383,103.551 103.549,102.718 104.5,102C 107.557,101.744 110.557,101.244 113.5,100.5C 114.141,101.993 115.141,102.993 116.5,103.5 Z"/></g>
<g><path style="opacity:1" fill="#9d8ac5" d="M 76.5,101.5 C 78.1958,101.685 79.5291,102.519 80.5,104C 86.4536,103.098 90.7869,105.265 93.5,110.5C 91.4559,109.969 89.7893,108.802 88.5,107C 84.2712,107.201 80.6045,106.034 77.5,103.5C 77.1667,102.833 76.8333,102.167 76.5,101.5 Z"/></g>
<g><path style="opacity:1" fill="#360f68" d="M 143.5,109.5 C 141.833,109.5 140.167,109.5 138.5,109.5C 137.5,109.5 136.5,109.5 135.5,109.5C 135.177,105.774 135.511,102.107 136.5,98.5C 137.167,99.5 137.833,100.5 138.5,101.5C 141.677,99.4742 145.011,99.1409 148.5,100.5C 147.675,101.386 146.675,101.719 145.5,101.5C 145.893,104.513 145.226,107.18 143.5,109.5 Z"/></g>
<g><path style="opacity:1" fill="#98476c" d="M 130.5,104.5 C 134.31,105.754 134.31,106.754 130.5,107.5C 130.5,106.5 130.5,105.5 130.5,104.5 Z"/></g>
<g><path style="opacity:1" fill="#240c59" d="M 51.5,101.5 C 59.8333,101.5 68.1667,101.5 76.5,101.5C 76.8333,102.167 77.1667,102.833 77.5,103.5C 77.5,104.167 77.1667,104.5 76.5,104.5C 75.7611,104.369 75.0944,104.536 74.5,105C 75.3805,105.708 76.0472,106.542 76.5,107.5C 75.5,107.5 74.5,107.5 73.5,107.5C 73.6309,106.624 73.2975,105.957 72.5,105.5C 71.3364,111.472 71.1697,117.472 72,123.5C 72.9529,125.373 74.1196,125.706 75.5,124.5C 76.1667,125.167 76.8333,125.833 77.5,126.5C 75.0799,126.708 72.7466,126.374 70.5,125.5C 69.537,125.97 69.537,126.637 70.5,127.5C 69.811,130.038 68.811,132.538 67.5,135C 68.91,137.818 70.5766,140.485 72.5,143C 71.8333,143.167 71.1667,143.333 70.5,143.5C 68.9644,142.751 67.6311,141.751 66.5,140.5C 65.7691,138.599 65.7691,136.599 66.5,134.5C 64.857,134.52 63.5237,133.853 62.5,132.5C 61.914,132.709 61.414,133.043 61,133.5C 60.3902,130.978 59.0569,128.978 57,127.5C 56.3333,126.5 56.3333,125.5 57,124.5C 58.7286,124.026 59.8953,123.026 60.5,121.5C 62.6569,120.947 62.4903,119.947 60,118.5C 59.2571,116.559 59.4238,114.726 60.5,113C 59.7562,111.961 58.7562,111.461 57.5,111.5C 56.596,112.209 56.2627,113.209 56.5,114.5C 55.5,114.5 54.5,114.5 53.5,114.5C 54.3492,111.964 55.3492,109.464 56.5,107C 55.1456,105.706 53.8123,105.54 52.5,106.5C 52.0266,104.753 51.6932,103.086 51.5,101.5 Z"/></g>
<g><path style="opacity:1" fill="#a788d3" d="M 64.5,105.5 C 66.337,105.639 66.6704,106.306 65.5,107.5C 64.7025,107.043 64.3691,106.376 64.5,105.5 Z"/></g>
<g><path style="opacity:1" fill="#907eb8" d="M 121.5,95.5 C 121.5,95.8333 121.5,96.1667 121.5,96.5C 120.549,97.9187 120.216,99.5853 120.5,101.5C 120.5,103.167 120.5,104.833 120.5,106.5C 125.029,106.504 128.529,104.504 131,100.5C 129.855,103.83 127.688,106.497 124.5,108.5C 119.103,108.215 113.77,108.549 108.5,109.5C 107.537,109.03 107.537,108.363 108.5,107.5C 111.747,106.748 115.081,106.248 118.5,106C 118.829,102.108 119.829,98.608 121.5,95.5 Z"/></g>
<g><path style="opacity:1" fill="#6d4fa0" d="M 73.5,107.5 C 73.334,112.844 73.5006,118.177 74,123.5C 75.2633,121.203 77.0966,120.37 79.5,121C 77.6763,121.66 76.343,122.827 75.5,124.5C 74.1196,125.706 72.9529,125.373 72,123.5C 71.1697,117.472 71.3364,111.472 72.5,105.5C 73.2975,105.957 73.6309,106.624 73.5,107.5 Z"/></g>
<g><path style="opacity:1" fill="#b7a7dd" d="M 76.5,104.5 C 77.2899,105.794 78.2899,106.961 79.5,108C 84.8075,107.297 88.8075,109.13 91.5,113.5C 91.1667,113.5 90.8333,113.5 90.5,113.5C 89.0384,112.542 87.7051,111.376 86.5,110C 82.8609,109.974 79.5275,109.14 76.5,107.5C 76.0472,106.542 75.3805,105.708 74.5,105C 75.0944,104.536 75.7611,104.369 76.5,104.5 Z"/></g>
<g><path style="opacity:1" fill="#735d93" d="M 132.5,109.5 C 133.5,109.5 134.5,109.5 135.5,109.5C 136.5,109.5 137.5,109.5 138.5,109.5C 138.389,110.117 138.056,110.617 137.5,111C 128.84,111.5 120.173,111.666 111.5,111.5C 118.5,110.833 125.5,110.167 132.5,109.5 Z"/></g>
<g><path style="opacity:1" fill="#7763a1" d="M 110.5,112.5 C 116.842,112.334 123.175,112.5 129.5,113C 130.416,113.278 131.082,113.778 131.5,114.5C 130.691,116.292 130.191,118.292 130,120.5C 129.505,118.527 129.338,116.527 129.5,114.5C 128.5,114.5 127.5,114.5 126.5,114.5C 126.5,116.5 126.5,118.5 126.5,120.5C 126.167,120.5 125.833,120.5 125.5,120.5C 125.799,118.396 125.466,116.396 124.5,114.5C 123.19,121.056 123.19,127.556 124.5,134C 124,134.5 123.5,135 123,135.5C 122.831,128.476 122.331,121.476 121.5,114.5C 120.348,123.764 119.515,123.764 119,114.5C 118.51,115.793 118.343,117.127 118.5,118.5C 115.272,119.414 111.939,119.747 108.5,119.5C 108.5,119.167 108.5,118.833 108.5,118.5C 111.187,118.664 113.854,118.497 116.5,118C 117.337,116.989 117.67,115.822 117.5,114.5C 114.5,114.5 111.5,114.5 108.5,114.5C 108.833,113.5 109.5,112.833 110.5,112.5 Z"/></g>
<g><path style="opacity:1" fill="#836fb5" d="M 89.5,102.5 C 90.1667,102.5 90.8333,102.5 91.5,102.5C 93.4611,104.963 95.6278,107.297 98,109.5C 97.9997,157.5 97.3331,157.5 96,109.5C 93.6278,107.297 91.4611,104.963 89.5,102.5 Z"/></g>
<g><path style="opacity:1" fill="#69307a" d="M 57.5,111.5 C 58.7562,111.461 59.7562,111.961 60.5,113C 59.4238,114.726 59.2571,116.559 60,118.5C 62.4903,119.947 62.6569,120.947 60.5,121.5C 59.209,121.737 58.209,121.404 57.5,120.5C 58.7335,117.535 58.7335,114.535 57.5,111.5 Z"/></g>
<g><path style="opacity:1" fill="#baa8e4" d="M 91.5,94.5 C 93.487,95.1642 95.1537,96.3308 96.5,98C 102.157,98.4994 107.824,98.6661 113.5,98.5C 113.5,98.8333 113.5,99.1667 113.5,99.5C 108.489,99.3341 103.489,99.5007 98.5,100C 99,100.5 99.5,101 100,101.5C 100.667,116.5 100.667,131.5 100,146.5C 99.6667,131.833 99.3333,117.167 99,102.5C 96.2453,99.9172 93.7453,97.2505 91.5,94.5 Z"/></g>
<g><path style="opacity:1" fill="#b4a6d8" d="M 124.5,109.5 C 127.167,109.5 129.833,109.5 132.5,109.5C 125.5,110.167 118.5,110.833 111.5,111.5C 110.833,111.5 110.5,111.833 110.5,112.5C 109.5,112.833 108.833,113.5 108.5,114.5C 108.5,115.833 108.5,117.167 108.5,118.5C 108.5,118.833 108.5,119.167 108.5,119.5C 108.5,122.167 108.5,124.833 108.5,127.5C 107.514,123.03 107.181,118.363 107.5,113.5C 108.29,112.206 109.29,111.039 110.5,110C 115.155,109.501 119.821,109.334 124.5,109.5 Z"/></g>
<g><path style="opacity:1" fill="#46366e" d="M 106.5,107.5 C 107.167,107.5 107.833,107.5 108.5,107.5C 107.537,108.363 107.537,109.03 108.5,109.5C 113.77,108.549 119.103,108.215 124.5,108.5C 124.5,108.833 124.5,109.167 124.5,109.5C 119.821,109.334 115.155,109.501 110.5,110C 109.29,111.039 108.29,112.206 107.5,113.5C 107.167,113.5 106.833,113.5 106.5,113.5C 105.643,122.784 105.143,133.451 105,145.5C 104.667,141.167 104.333,136.833 104,132.5C 103.768,131.263 103.268,130.263 102.5,129.5C 102.334,123.158 102.5,116.825 103,110.5C 104.039,109.29 105.206,108.29 106.5,107.5 Z"/></g>
<g><path style="opacity:1" fill="#180649" d="M 108.5,114.5 C 111.5,114.5 114.5,114.5 117.5,114.5C 117.67,115.822 117.337,116.989 116.5,118C 113.854,118.497 111.187,118.664 108.5,118.5C 108.5,117.167 108.5,115.833 108.5,114.5 Z"/></g>
<g><path style="opacity:1" fill="#d2cae4" d="M 82.5,117.5 C 85.9571,117.667 86.2904,118.667 83.5,120.5C 82.6143,119.675 82.281,118.675 82.5,117.5 Z"/></g>
<g><path style="opacity:1" fill="#604c93" d="M 106.5,113.5 C 106.833,113.5 107.167,113.5 107.5,113.5C 107.181,118.363 107.514,123.03 108.5,127.5C 108.5,133.5 108.5,139.5 108.5,145.5C 106.524,135.219 105.857,124.552 106.5,113.5 Z"/></g>
<g><path style="opacity:1" fill="#847aa9" d="M 93.5,110.5 C 95.4563,116.412 96.1229,122.745 95.5,129.5C 94.8333,129.5 94.1667,129.5 93.5,129.5C 93.5,123.167 93.5,116.833 93.5,110.5 Z"/></g>
<g><path style="opacity:1" fill="#c9bbdc" d="M 112.5,123.5 C 116.31,124.754 116.31,125.754 112.5,126.5C 112.5,125.5 112.5,124.5 112.5,123.5 Z"/></g>
<g><path style="opacity:1" fill="#a286ce" d="M 77.5,126.5 C 77.6309,127.376 77.2975,128.043 76.5,128.5C 74.9291,127.691 73.2624,127.357 71.5,127.5C 71.1667,127.5 70.8333,127.5 70.5,127.5C 69.537,126.637 69.537,125.97 70.5,125.5C 72.7466,126.374 75.0799,126.708 77.5,126.5 Z"/></g>
<g><path style="opacity:1" fill="#a54481" d="M 77.5,133.5 C 74.4524,133.506 73.9524,132.506 76,130.5C 77.0386,131.244 77.5386,132.244 77.5,133.5 Z"/></g>
<g><path style="opacity:1" fill="#16064a" d="M 138.5,109.5 C 140.167,109.5 141.833,109.5 143.5,109.5C 145.631,110.314 147.964,110.814 150.5,111C 150.04,115.217 147.706,117.051 143.5,116.5C 143.657,117.873 143.49,119.207 143,120.5C 141.844,119.007 141.01,119.174 140.5,121C 141.187,122.162 141.353,123.328 141,124.5C 138.416,126.988 136.583,129.488 135.5,132C 136.5,132.333 137.5,132.667 138.5,133C 135.962,135.442 133.128,135.942 130,134.5C 128.933,135.191 127.766,135.691 126.5,136C 127.602,138.401 127.769,140.901 127,143.5C 126.71,141.956 126.044,140.623 125,139.5C 122.699,142.934 119.866,143.767 116.5,142C 121.115,140.923 122.615,138.09 121,133.5C 120.781,134.938 120.281,136.271 119.5,137.5C 118.269,136.349 118.269,135.183 119.5,134C 118.451,133.508 117.451,133.674 116.5,134.5C 115.614,133.675 115.281,132.675 115.5,131.5C 116.5,131.5 117.5,131.5 118.5,131.5C 118.5,127.167 118.5,122.833 118.5,118.5C 118.343,117.127 118.51,115.793 119,114.5C 119.515,123.764 120.348,123.764 121.5,114.5C 122.331,121.476 122.831,128.476 123,135.5C 123.5,135 124,134.5 124.5,134C 123.19,127.556 123.19,121.056 124.5,114.5C 125.466,116.396 125.799,118.396 125.5,120.5C 125.334,124.514 125.501,128.514 126,132.5C 126.893,133.711 127.726,133.711 128.5,132.5C 126.669,128.759 126.003,124.759 126.5,120.5C 126.5,118.5 126.5,116.5 126.5,114.5C 127.5,114.5 128.5,114.5 129.5,114.5C 129.338,116.527 129.505,118.527 130,120.5C 130.191,118.292 130.691,116.292 131.5,114.5C 131.082,113.778 130.416,113.278 129.5,113C 123.175,112.5 116.842,112.334 110.5,112.5C 110.5,111.833 110.833,111.5 111.5,111.5C 120.173,111.666 128.84,111.5 137.5,111C 138.056,110.617 138.389,110.117 138.5,109.5 Z"/></g>
<g><path style="opacity:1" fill="#573690" d="M 125.5,120.5 C 125.833,120.5 126.167,120.5 126.5,120.5C 126.003,124.759 126.669,128.759 128.5,132.5C 127.726,133.711 126.893,133.711 126,132.5C 125.501,128.514 125.334,124.514 125.5,120.5 Z"/></g>
<g><path style="opacity:1" fill="#724fae" d="M 131.5,114.5 C 134.247,115.966 137.247,116.799 140.5,117C 138.167,117.667 135.833,117.667 133.5,117C 132.619,116.292 131.953,115.458 131.5,114.5 Z"/></g>
<g><path style="opacity:1" fill="#9980c6" d="M 135.5,112.5 C 137.337,112.639 137.67,113.306 136.5,114.5C 135.702,114.043 135.369,113.376 135.5,112.5 Z"/></g>
<g><path style="opacity:1" fill="#7053a1" d="M 93.5,129.5 C 94.1667,129.5 94.8333,129.5 95.5,129.5C 94.8333,150.833 94.1667,150.833 93.5,129.5 Z"/></g>
<g><path style="opacity:1" fill="#6a569b" d="M 90.5,113.5 C 90.8333,113.5 91.1667,113.5 91.5,113.5C 92.8238,124.34 92.8238,135.34 91.5,146.5C 90.5012,135.52 90.1679,124.52 90.5,113.5 Z"/></g>
</svg>
