<?xml version="1.0" standalone="yes"?>
<svg xmlns="http://www.w3.org/2000/svg" width="200" height="200">
<path style="fill:#100843; stroke:none;" d="M0 0L0 200L200 200L200 0L0 0z"/>
<path style="fill:#251364; stroke:none;" d="M110 47C108.212 48.4215 107.294 48.6974 105 49L105 51C108.569 50.8031 110.757 50.5383 112 47L110 47z"/>
<path style="fill:#8074a2; stroke:none;" d="M99.6667 48.3333C99.2222 48.7778 100.278 48.7222 100.333 48.6667C100.778 48.2222 99.7222 48.2778 99.6667 48.3333z"/>
<path style="fill:#15004d; stroke:none;" d="M103 49C103.961 51.6935 104.636 53.3965 107 55C103.558 66.6432 106 81.8666 106 94L99 94C101.106 93.3562 102.795 93.0941 105 93C105 87.3582 105.607 81.437 104 76C101.453 82.0686 105.776 90.6003 97 92L97 96L107 96C107 86.3501 102.8 68.8865 116 68L116 70C108.094 70.2596 109 75.4279 109 82L117 82C117.003 77.6138 119.738 71.9358 119.098 68.0039C118.585 64.8507 115.358 63.1078 113.598 60.7184C111.648 58.0716 110.706 54.1647 110 51L105 51L105 49L110 49C107.413 47.9346 105.679 48.2185 103 49z"/>
<path style="fill:#13004c; stroke:none;" d="M112 48C112.048 52.2762 112.764 57.0781 115.009 60.8341C116.522 63.3644 119.757 65.0091 120.427 68.0131C120.909 70.1718 119.493 72.9136 119 75C124.349 72.3023 123.988 68.3455 123 63C116.01 61.0321 116.388 53.6582 114 48L112 48z"/>
<path style="fill:#402f76; stroke:none;" d="M92.6667 49.3333C92.2222 49.7778 93.2778 49.7222 93.3333 49.6667C93.7778 49.2222 92.7222 49.2778 92.6667 49.3333z"/>
<path style="fill:#ffffff; stroke:none;" d="M99 49C99.5451 50.6352 99.3648 50.4549 101 51L101 49L99 49z"/>
<path style="fill:#563d8a; stroke:none;" d="M81 50L81 53C81.6961 51.4463 81.6961 51.5537 81 50z"/>
<path style="fill:#583b94; stroke:none;" d="M92.6667 50.3333C92.2222 50.7778 93.2778 50.7223 93.3333 50.6667C93.7777 50.2222 92.7222 50.2778 92.6667 50.3333z"/>
<path style="fill:#8d78b7; stroke:none;" d="M99 50L100 51L99 50z"/>
<path style="fill:#421f7f; stroke:none;" d="M110 50L110 55C111.422 53.2115 111.697 52.2943 112 50L110 50z"/>
<path style="fill:#7867ad; stroke:none;" d="M115.667 50.3333C115.222 50.7778 116.278 50.7222 116.333 50.6667C116.778 50.2223 115.722 50.2777 115.667 50.3333z"/>
<path style="fill:#381b69; stroke:none;" d="M80 51C79.445 56.0483 79.445 61.9517 80 67C81.8123 62.6811 81.8123 55.3189 80 51z"/>
<path style="fill:#724eb7; stroke:none;" d="M84 51L84 53L86 53L86 51L84 51z"/>
<path style="fill:#9282b8; stroke:none;" d="M100 51L101 52L100 51z"/>
<path style="fill:#eadcff; stroke:none;" d="M101 51L102 52L101 51z"/>
<path style="fill:#937dcb; stroke:none;" d="M115.667 51.3333C115.222 51.7778 116.278 51.7222 116.333 51.6667C116.778 51.2223 115.722 51.2777 115.667 51.3333z"/>
<path style="fill:#301269; stroke:none;" d="M74 52L74 58C74.9511 55.7147 74.9511 54.2853 74 52z"/>
<path style="fill:#7765a1; stroke:none;" d="M101 52L102 53L101 52z"/>
<path style="fill:#f7e2ff; stroke:none;" d="M102 52L102 67C103.74 62.8523 103.74 56.1477 102 52z"/>
<path style="fill:#512d87; stroke:none;" d="M116 52L116 59C117.059 56.4657 117.059 54.5343 116 52z"/>
<path style="fill:#c1a3ed; stroke:none;" d="M118.333 52.6667C118.278 52.7222 118.222 53.7778 118.667 53.3333C118.722 53.2778 118.778 52.2222 118.333 52.6667z"/>
<path style="fill:#ffffff; stroke:none;" d="M119.333 52.6667C119.278 52.7222 119.222 53.7778 119.667 53.3333C119.722 53.2777 119.778 52.2223 119.333 52.6667z"/>
<path style="fill:#a78ee5; stroke:none;" d="M121 52L122 53L121 52z"/>
<path style="fill:#6e5aa0; stroke:none;" d="M122 52L123 53L122 52z"/>
<path style="fill:#a388cf; stroke:none;" d="M81 53L81 68C82.7404 63.8523 82.7404 57.1477 81 53z"/>
<path style="fill:#47297d; stroke:none;" d="M85.6667 53.3333C85.2222 53.7778 86.2778 53.7222 86.3333 53.6667C86.7778 53.2222 85.7222 53.2778 85.6667 53.3333z"/>
<path style="fill:#381b70; stroke:none;" d="M91 55C93.7092 54.3521 96.2155 54.0583 99 54C96.0802 52.7767 93.1633 52.5242 91 55z"/>
<path style="fill:#010034; stroke:none;" d="M101 53L101 67C102.667 63.0279 102.667 56.9721 101 53z"/>
<path style="fill:#6647a5; stroke:none;" d="M120 53L121 54L120 53z"/>
<path style="fill:#e8caff; stroke:none;" d="M121 53L122 54L121 53z"/>
<path style="fill:#9c84d2; stroke:none;" d="M122 53L123 54L122 53z"/>
<path style="fill:#e5d1ff; stroke:none;" d="M124.333 53.6667C124.278 53.7222 124.222 54.7778 124.667 54.3333C124.722 54.2777 124.778 53.2223 124.333 53.6667z"/>
<path style="fill:#7160a3; stroke:none;" d="M125.333 53.6667C125.278 53.7222 125.222 54.7778 125.667 54.3333C125.722 54.2777 125.778 53.2223 125.333 53.6667z"/>
<path style="fill:#7554a8; stroke:none;" d="M86 54L87 59C87.9157 56.6996 87.8793 55.6232 86 54z"/>
<path style="fill:#4e2983; stroke:none;" d="M99 54L99 64C100.346 60.793 100.346 57.207 99 54z"/>
<path style="fill:#9a7bd3; stroke:none;" d="M111 54L112 55L111 54z"/>
<path style="fill:#24005e; stroke:none;" d="M117 54C117.052 56.5284 117.278 58.5819 118 61C118.914 58.7172 118.812 56.461 119 54L117 54z"/>
<path style="fill:#6b42a7; stroke:none;" d="M119 54L118 57C119.766 56.0214 119.955 55.7782 119 54z"/>
<path style="fill:#1f004f; stroke:none;" d="M120 54C120.002 57.3457 119.142 61.5153 123 62C122.35 60.7003 122.853 61 121 61C122.177 58.2611 121.499 56.564 120 54z"/>
<path style="fill:#69459b; stroke:none;" d="M121 54L121 58C121.71 56.2405 121.71 55.7595 121 54z"/>
<path style="fill:#301b69; stroke:none;" d="M70.3333 55.6667C70.2778 55.7222 70.2222 56.7778 70.6667 56.3333C70.7223 56.2777 70.7777 55.2223 70.3333 55.6667z"/>
<path style="fill:#755bb0; stroke:none;" d="M71 55L72 56L71 55z"/>
<path style="fill:#482d79; stroke:none;" d="M72 55L73 56L72 55z"/>
<path style="fill:#ffffff; stroke:none;" d="M77 55L77 57L79 57C78.4549 55.3648 78.6352 55.5451 77 55z"/>
<path style="fill:#716ca0; stroke:none;" d="M78 55L79 56L78 55z"/>
<path style="fill:#b392e6; stroke:none;" d="M105.333 55.6667C105.278 55.7222 105.222 56.7778 105.667 56.3333C105.722 56.2777 105.778 55.2223 105.333 55.6667z"/>
<path style="fill:#7a5eb0; stroke:none;" d="M106 55L107 56L106 55z"/>
<path style="fill:#9c82d4; stroke:none;" d="M112 55L112 60C112.83 57.9695 112.83 57.0305 112 55z"/>
<path style="fill:#3b2173; stroke:none;" d="M113 55L113 60C113.83 57.9695 113.83 57.0305 113 55z"/>
<path style="fill:#b294ea; stroke:none;" d="M124 55L124 59C124.71 57.2405 124.71 56.7595 124 55z"/>
<path style="fill:#c8aeff; stroke:none;" d="M71 56L72 57L71 56z"/>
<path style="fill:#9a7fcb; stroke:none;" d="M72 56L73 57L72 56z"/>
<path style="fill:#7c6cad; stroke:none;" d="M76 56L77 57L76 56z"/>
<path style="fill:#30165f; stroke:none;" d="M88 56L88 63C89.0595 60.4657 89.0595 58.5343 88 56z"/>
<path style="fill:#10004d; stroke:none;" d="M64 58C65.0436 63.6213 63.8826 69.5022 69 73L66 61L69 61C67.8193 66.0316 68.3335 77.6345 72.3179 81.4275C74.9843 83.9657 78.5677 83.9617 82 84C81.996 90.1013 78.0558 99.7221 86 101C84.9713 98.3687 83.5317 95.8321 83.1435 93C82.3428 87.1577 84.1437 80.7487 82.6821 75.0147C81.6199 70.8473 77.2824 66.7164 75 63L72 65C72.1862 62.0991 71.758 59.8032 71 57L64 58z"/>
<path style="fill:#533a8e; stroke:none;" d="M71 57C71.6735 59.2974 71.9653 59.7741 74 61C73.0407 59.4031 72.2741 58.3411 71 57z"/>
<path style="fill:#9086c1; stroke:none;" d="M77 57L78 58L77 57z"/>
<path style="fill:#443e72; stroke:none;" d="M78 57L79 58L78 57z"/>
<path style="fill:#634b98; stroke:none;" d="M95.3333 57.6667C95.2778 57.7222 95.2222 58.7778 95.6667 58.3333C95.7222 58.2778 95.7777 57.2223 95.3333 57.6667z"/>
<path style="fill:#f7dbff; stroke:none;" d="M96.3333 57.6667C96.2778 57.7222 96.2222 58.7778 96.6667 58.3333C96.7223 58.2777 96.7777 57.2223 96.3333 57.6667z"/>
<path style="fill:#5f3b8b; stroke:none;" d="M97.3333 57.6667C97.2778 57.7222 97.2222 58.7778 97.6667 58.3333C97.7223 58.2777 97.7777 57.2223 97.3333 57.6667z"/>
<path style="fill:#9d81d6; stroke:none;" d="M105 57L105 77C107.087 72.0273 107.087 61.9727 105 57z"/>
<path style="fill:#3d2b77; stroke:none;" d="M108.667 57.3333C108.222 57.7778 109.278 57.7222 109.333 57.6667C109.778 57.2222 108.722 57.2778 108.667 57.3333z"/>
<path style="fill:#4c2c8b; stroke:none;" d="M119 57L119 62C119.83 59.9695 119.83 59.0305 119 57z"/>
<path style="fill:#a375ea; stroke:none;" d="M84.3333 58.6667C84.2778 58.7222 84.2222 59.7778 84.6667 59.3333C84.7223 59.2777 84.7777 58.2223 84.3333 58.6667z"/>
<path style="fill:#4b1d92; stroke:none;" d="M85.3333 58.6667C85.2778 58.7222 85.2222 59.7778 85.6667 59.3333C85.7223 59.2777 85.7778 58.2223 85.3333 58.6667z"/>
<path style="fill:#5b309e; stroke:none;" d="M91 58L91 60L93 60L93 58L91 58z"/>
<path style="fill:#d3c4ff; stroke:none;" d="M108.667 58.3333C108.222 58.7778 109.278 58.7222 109.333 58.6667C109.778 58.2222 108.722 58.2778 108.667 58.3333z"/>
<path style="fill:#7a58b2; stroke:none;" d="M122 58L123 59L122 58z"/>
<path style="fill:#5a418c; stroke:none;" d="M130.333 58.6667C130.278 58.7222 130.222 59.7778 130.667 59.3333C130.722 59.2777 130.778 58.2223 130.333 58.6667z"/>
<path style="fill:#c7b1fa; stroke:none;" d="M131.333 58.6667C131.278 58.7222 131.222 59.7778 131.667 59.3333C131.722 59.2777 131.778 58.2223 131.333 58.6667z"/>
<path style="fill:#634c96; stroke:none;" d="M132.333 58.6667C132.278 58.7222 132.222 59.7778 132.667 59.3333C132.722 59.2777 132.778 58.2223 132.333 58.6667z"/>
<path style="fill:#8866ba; stroke:none;" d="M87 59L87 63C87.7102 61.2405 87.7102 60.7595 87 59z"/>
<path style="fill:#ccb1fe; stroke:none;" d="M96 59L96 68C97.2561 65.0059 97.2561 61.9941 96 59z"/>
<path style="fill:#9e92da; stroke:none;" d="M108.667 59.3333C108.222 59.7778 109.278 59.7222 109.333 59.6667C109.778 59.2222 108.722 59.2778 108.667 59.3333z"/>
<path style="fill:#8569c1; stroke:none;" d="M123 59L124 60L123 59z"/>
<path style="fill:#d5bbff; stroke:none;" d="M124 59L124 67C125.161 64.2302 125.161 61.7698 124 59z"/>
<path style="fill:#7758ac; stroke:none;" d="M64 60L65 61L64 60z"/>
<path style="fill:#633ea2; stroke:none;" d="M84.3333 60.6667C84.2778 60.7222 84.2222 61.7778 84.6667 61.3333C84.7223 61.2777 84.7777 60.2223 84.3333 60.6667z"/>
<path style="fill:#604793; stroke:none;" d="M112 60L113 61L112 60z"/>
<path style="fill:#c6aafa; stroke:none;" d="M113 60L114 61L113 60z"/>
<path style="fill:#040036; stroke:none;" d="M121 60C122.221 61.9537 122.616 63.6312 123 66C123.874 63.9479 123.953 62.2528 124 60L121 60z"/>
<path style="fill:#6d529f; stroke:none;" d="M131 60L132 61L131 60z"/>
<path style="fill:#53318b; stroke:none;" d="M64 61L64 66C64.8299 63.9695 64.8299 63.0305 64 61z"/>
<path style="fill:#552d8a; stroke:none;" d="M66.3333 61.6667C66.2778 61.7222 66.2222 62.7778 66.6667 62.3333C66.7223 62.2777 66.7777 61.2223 66.3333 61.6667z"/>
<path style="fill:#c6a3ff; stroke:none;" d="M67.3333 61.6667C67.2778 61.7222 67.2222 62.7778 67.6667 62.3333C67.7223 62.2777 67.7777 61.2223 67.3333 61.6667z"/>
<path style="fill:#553594; stroke:none;" d="M68.3333 61.6667C68.2778 61.7222 68.2222 62.7778 68.6667 62.3333C68.7223 62.2777 68.7777 61.2223 68.3333 61.6667z"/>
<path style="fill:#724aa5; stroke:none;" d="M73.6667 61.3333C73.2222 61.7778 74.2778 61.7222 74.3333 61.6667C74.7777 61.2223 73.7223 61.2777 73.6667 61.3333z"/>
<path style="fill:#5c4894; stroke:none;" d="M94 61L95 62L94 61z"/>
<path style="fill:#503585; stroke:none;" d="M113 61L114 62L113 61z"/>
<path style="fill:#bea3f2; stroke:none;" d="M114 61L115 62L114 61z"/>
<path style="fill:#8564b8; stroke:none;" d="M130 61L131 62L130 61z"/>
<path style="fill:#360e6e; stroke:none;" d="M134 61L134 67L136 67L136 61L134 61z"/>
<path style="fill:#330972; stroke:none;" d="M72.6667 62.3333C72.2222 62.7778 73.2778 62.7222 73.3333 62.6667C73.7778 62.2222 72.7222 62.2778 72.6667 62.3333z"/>
<path style="fill:#9475c5; stroke:none;" d="M74 62C75.4498 63.6076 76.0514 64.0643 78 65C76.5502 63.3924 75.9485 62.9357 74 62z"/>
<path style="fill:#7b67b6; stroke:none;" d="M84.3333 62.6667C84.2778 62.7222 84.2222 63.7778 84.6667 63.3333C84.7223 63.2777 84.7777 62.2223 84.3333 62.6667z"/>
<path style="fill:#b9a1f4; stroke:none;" d="M115 62L116 63L115 62z"/>
<path style="fill:#563c94; stroke:none;" d="M120 62L121 63L120 62z"/>
<path style="fill:#4c2a7f; stroke:none;" d="M128 62L129 63L128 62z"/>
<path style="fill:#a080d3; stroke:none;" d="M129 62L130 63L129 62z"/>
<path style="fill:#7b5eb3; stroke:none;" d="M67 63C67.0318 65.875 66.7923 68.0745 69 70C68.4052 67.6044 68.0094 65.233 67 63z"/>
<path style="fill:#bb91f5; stroke:none;" d="M72 63L73 64L72 63z"/>
<path style="fill:#885fc2; stroke:none;" d="M73 63L74 64L73 63z"/>
<path style="fill:#503584; stroke:none;" d="M87 63L88 64L87 63z"/>
<path style="fill:#b59de6; stroke:none;" d="M88 63L89 64L88 63z"/>
<path style="fill:#bea2f7; stroke:none;" d="M116 63L117 64L116 63z"/>
<path style="fill:#4a3082; stroke:none;" d="M117 63L118 64L117 63z"/>
<path style="fill:#563d97; stroke:none;" d="M121 63L122 64L121 63z"/>
<path style="fill:#583c8a; stroke:none;" d="M127 63L127 73C128.346 69.793 128.346 66.207 127 63z"/>
<path style="fill:#a085cf; stroke:none;" d="M128 63L128 73C129.346 69.793 129.346 66.207 128 63z"/>
<path style="fill:#573b87; stroke:none;" d="M130 63L131 64L130 63z"/>
<path style="fill:#bb9fe8; stroke:none;" d="M131 63L132 64L131 63z"/>
<path style="fill:#523d86; stroke:none;" d="M61.6667 64.3333C61.2223 64.7778 62.2778 64.7222 62.3333 64.6667C62.7778 64.2222 61.7222 64.2778 61.6667 64.3333z"/>
<path style="fill:#5c388c; stroke:none;" d="M72.6667 64.3333C72.2222 64.7778 73.2777 64.7223 73.3333 64.6667C73.7778 64.2222 72.7222 64.2778 72.6667 64.3333z"/>
<path style="fill:#9978ce; stroke:none;" d="M84 64C84.6736 66.2974 84.9653 66.7741 87 68C86.0407 66.4031 85.2741 65.3411 84 64z"/>
<path style="fill:#4b2d7e; stroke:none;" d="M88 64L89 65L88 64z"/>
<path style="fill:#bca0ef; stroke:none;" d="M89 64L90 65L89 64z"/>
<path style="fill:#542399; stroke:none;" d="M112 64C112.684 65.58 112.805 65.7772 114 67L114 64L112 64z"/>
<path style="fill:#3a0b76; stroke:none;" d="M114.333 64.6667C114.278 64.7222 114.222 65.7778 114.667 65.3333C114.722 65.2777 114.778 64.2223 114.333 64.6667z"/>
<path style="fill:#bda4f6; stroke:none;" d="M117 64L118 65L117 64z"/>
<path style="fill:#533b84; stroke:none;" d="M118 64L119 65L118 64z"/>
<path style="fill:#ffffff; stroke:none;" d="M130 64C130.545 65.6351 130.365 65.4549 132 66L132 64L130 64z"/>
<path style="fill:#a490c7; stroke:none;" d="M132 64L133 65L132 64z"/>
<path style="fill:#3d2075; stroke:none;" d="M138 64L138 72C139.161 69.2301 139.161 66.7699 138 64z"/>
<path style="fill:#dab7ff; stroke:none;" d="M77 65L77 68C77.6961 66.4463 77.6961 66.5537 77 65z"/>
<path style="fill:#b8a4f2; stroke:none;" d="M90 65L91 66L90 65z"/>
<path style="fill:#c8affc; stroke:none;" d="M118 65L119 66L118 65z"/>
<path style="fill:#6c519e; stroke:none;" d="M119 65L120 66L119 65z"/>
<path style="fill:#6c618c; stroke:none;" d="M130 65L131 66L130 65z"/>
<path style="fill:#9679cb; stroke:none;" d="M64.3333 66.6667C64.2778 66.7222 64.2222 67.7778 64.6667 67.3333C64.7223 67.2777 64.7778 66.2223 64.3333 66.6667z"/>
<path style="fill:#af9aec; stroke:none;" d="M91 66L92 67L91 66z"/>
<path style="fill:#412577; stroke:none;" d="M92 66L93 67L92 66z"/>
<path style="fill:#bfa3f0; stroke:none;" d="M119 66L120 67L119 66z"/>
<path style="fill:#8160b4; stroke:none;" d="M120 66L121 67L120 66z"/>
<path style="fill:#9077c9; stroke:none;" d="M71.3333 67.6667C71.2778 67.7222 71.2222 68.7778 71.6667 68.3333C71.7223 68.2777 71.7778 67.2223 71.3333 67.6667z"/>
<path style="fill:#fdd8ff; stroke:none;" d="M72.3333 67.6667C72.2778 67.7222 72.2222 68.7778 72.6667 68.3333C72.7223 68.2777 72.7777 67.2223 72.3333 67.6667z"/>
<path style="fill:#694da2; stroke:none;" d="M82 67L83 68L82 67z"/>
<path style="fill:#a68adc; stroke:none;" d="M92 67L93 68L92 67z"/>
<path style="fill:#593e8f; stroke:none;" d="M93 67L94 68L93 67z"/>
<path style="fill:#5a3f8e; stroke:none;" d="M97 67L98 68L97 67z"/>
<path style="fill:#ddbeff; stroke:none;" d="M102 67L102 72C102.83 69.9695 102.83 69.0305 102 67z"/>
<path style="fill:#a78bdf; stroke:none;" d="M120 67C120.545 68.6352 120.365 68.4549 122 69L122 67L120 67z"/>
<path style="fill:#c6a6f1; stroke:none;" d="M124 67L124 72C124.83 69.9695 124.83 69.0305 124 67z"/>
<path style="fill:#4d318a; stroke:none;" d="M134.667 67.3333C134.222 67.7778 135.278 67.7222 135.333 67.6667C135.778 67.2222 134.722 67.2778 134.667 67.3333z"/>
<path style="fill:#ad95e4; stroke:none;" d="M64 68L64 71C64.6961 69.4463 64.6961 69.5537 64 68z"/>
<path style="fill:#603b91; stroke:none;" d="M73 68L74 69L73 68z"/>
<path style="fill:#532c85; stroke:none;" d="M77 68L78 69L77 68z"/>
<path style="fill:#c5adff; stroke:none;" d="M78 68L79 69L78 68z"/>
<path style="fill:#3c2678; stroke:none;" d="M79 68L80 69L79 68z"/>
<path style="fill:#9d7bd3; stroke:none;" d="M82 68C83.3303 69.7525 84.2475 70.6698 86 72C84.8465 69.7511 84.2489 69.1535 82 68z"/>
<path style="fill:#5f469a; stroke:none;" d="M86 68L87 69L86 68z"/>
<path style="fill:#ac94e8; stroke:none;" d="M87 68L88 69L87 68z"/>
<path style="fill:#b195e4; stroke:none;" d="M93 68L94 69L93 68z"/>
<path style="fill:#674f9d; stroke:none;" d="M94 68L95 69L94 68z"/>
<path style="fill:#ab90df; stroke:none;" d="M97 68L98 69L97 68z"/>
<path style="fill:#6b4ea4; stroke:none;" d="M98 68L99 69L98 68z"/>
<path style="fill:#05003c; stroke:none;" d="M101 68C100.251 74.8171 101 82.1008 101 89C103.153 83.8692 103.153 73.1308 101 68z"/>
<path style="fill:#6a38a3; stroke:none;" d="M110 68C112.013 69.2247 113.659 69.6453 116 70C113.958 68.584 112.489 68.2549 110 68z"/>
<path style="fill:#9d6fcc; stroke:none;" d="M114.667 68.3333C114.222 68.7778 115.278 68.7222 115.333 68.6667C115.778 68.2222 114.722 68.2778 114.667 68.3333z"/>
<path style="fill:#48287d; stroke:none;" d="M120 68L121 69L120 68z"/>
<path style="fill:#d2a8fa; stroke:none;" d="M134.667 68.3333C134.222 68.7778 135.278 68.7222 135.333 68.6667C135.778 68.2222 134.722 68.2778 134.667 68.3333z"/>
<path style="fill:#63449d; stroke:none;" d="M72 69L72 80C73.4309 76.59 73.4309 72.41 72 69z"/>
<path style="fill:#462a81; stroke:none;" d="M78 69L79 70L78 69z"/>
<path style="fill:#cfb7ff; stroke:none;" d="M79 69L80 70L79 69z"/>
<path style="fill:#4e2f86; stroke:none;" d="M80 69L81 70L80 69z"/>
<path style="fill:#523a8d; stroke:none;" d="M87 69L88 70L87 69z"/>
<path style="fill:#c1a0f5; stroke:none;" d="M88 69L89 70L88 69z"/>
<path style="fill:#8670bc; stroke:none;" d="M94.6667 69.3333C94.2222 69.7778 95.2778 69.7222 95.3333 69.6667C95.7777 69.2222 94.7222 69.2778 94.6667 69.3333z"/>
<path style="fill:#8368b9; stroke:none;" d="M98.6667 69.3333C98.2222 69.7778 99.2778 69.7222 99.3333 69.6667C99.7778 69.2222 98.7222 69.2778 98.6667 69.3333z"/>
<path style="fill:#ebd1ff; stroke:none;" d="M109 69L110 70L109 69z"/>
<path style="fill:#9675c9; stroke:none;" d="M110 69C111.248 69.6848 111.548 69.7488 113 70C111.752 69.3152 111.452 69.2512 110 69z"/>
<path style="fill:#8768bf; stroke:none;" d="M118 73C119.753 71.6697 120.67 70.7525 122 69C119.751 70.1535 119.154 70.7511 118 73z"/>
<path style="fill:#8057a5; stroke:none;" d="M134.667 69.3333C134.222 69.7778 135.278 69.7222 135.333 69.6667C135.778 69.2222 134.722 69.2778 134.667 69.3333z"/>
<path style="fill:#372762; stroke:none;" d="M60.6667 70.3333C60.2222 70.7778 61.2778 70.7222 61.3333 70.6667C61.7778 70.2222 60.7222 70.2778 60.6667 70.3333z"/>
<path style="fill:#482b7d; stroke:none;" d="M68 70L69 71L68 70z"/>
<path style="fill:#cba6fb; stroke:none;" d="M69 70L69 80C70.3457 76.793 70.3457 73.207 69 70z"/>
<path style="fill:#350f6a; stroke:none;" d="M75.6667 70.3333C75.2222 70.7778 76.2778 70.7222 76.3333 70.6667C76.7778 70.2222 75.7222 70.2777 75.6667 70.3333z"/>
<path style="fill:#cdaeff; stroke:none;" d="M80 70L81 71L80 70z"/>
<path style="fill:#55388c; stroke:none;" d="M81 70L82 71L81 70z"/>
<path style="fill:#503387; stroke:none;" d="M88 70L89 71L88 70z"/>
<path style="fill:#d4b7ff; stroke:none;" d="M89 70L90 71L89 70z"/>
<path style="fill:#a58ad4; stroke:none;" d="M95.6667 70.3333C95.2222 70.7778 96.2778 70.7222 96.3333 70.6667C96.7777 70.2223 95.7223 70.2777 95.6667 70.3333z"/>
<path style="fill:#af94e6; stroke:none;" d="M99 70L100 71L99 70z"/>
<path style="fill:#66429e; stroke:none;" d="M100 70C98.5655 74.8532 99 79.9643 99 85L101 85C101 80.1834 101.876 74.4714 100 70z"/>
<path style="fill:#351169; stroke:none;" d="M107 70L107 96C109.477 90.097 109.477 75.903 107 70z"/>
<path style="fill:#c1a8f1; stroke:none;" d="M108 70L108 96C109.552 92.3025 109 87.9831 109 84L115 84C112.948 83.1257 111.253 83.0472 109 83C109 78.7366 109.661 73.9587 108 70z"/>
<path style="fill:#543980; stroke:none;" d="M109 70L110 71L109 70z"/>
<path style="fill:#605a8a; stroke:none;" d="M59.3333 71.6667C59.2778 71.7222 59.2222 72.7778 59.6667 72.3333C59.7222 72.2778 59.7778 71.2222 59.3333 71.6667z"/>
<path style="fill:#ffffff; stroke:none;" d="M60 71L60 73L62 73L62 71L60 71z"/>
<path style="fill:#7c78a2; stroke:none;" d="M62.3333 71.6667C62.2778 71.7222 62.2222 72.7778 62.6667 72.3333C62.7222 72.2778 62.7778 71.2222 62.3333 71.6667z"/>
<path style="fill:#bfa7f6; stroke:none;" d="M65 71L66 72L65 71z"/>
<path style="fill:#553e8c; stroke:none;" d="M66 71L67 72L66 71z"/>
<path style="fill:#5e3a97; stroke:none;" d="M75.6667 71.3333C75.2222 71.7778 76.2778 71.7222 76.3333 71.6667C76.7778 71.2222 75.7222 71.2778 75.6667 71.3333z"/>
<path style="fill:#3a1675; stroke:none;" d="M77 71L76 73L78 73C78 71.1468 78.2997 71.6498 77 71z"/>
<path style="fill:#d6b9ff; stroke:none;" d="M81 71L82 72L81 71z"/>
<path style="fill:#7053a7; stroke:none;" d="M82 71L83 72L82 71z"/>
<path style="fill:#d7b5ff; stroke:none;" d="M86 71L86 78C87.0595 75.4657 87.0595 73.5343 86 71z"/>
<path style="fill:#4a2f7f; stroke:none;" d="M89 71L90 72L89 71z"/>
<path style="fill:#c8a8f4; stroke:none;" d="M90 71L90 82C91.4309 78.59 91.4309 74.41 90 71z"/>
<path style="fill:#ffe7ff; stroke:none;" d="M96 71L96 80C97.2561 77.0059 97.2561 73.9941 96 71z"/>
<path style="fill:#ac97e2; stroke:none;" d="M66 72L67 73L66 72z"/>
<path style="fill:#815fb1; stroke:none;" d="M67 72C67.6836 73.58 67.8048 73.7772 69 75C68.3164 73.42 68.1952 73.2228 67 72z"/>
<path style="fill:#c3a6f8; stroke:none;" d="M82 72L83 73L82 72z"/>
<path style="fill:#896cbe; stroke:none;" d="M83 72L84 73L83 72z"/>
<path style="fill:#2f1164; stroke:none;" d="M85 72C85 77.6644 85.0868 83.3365 84.9861 89C84.9267 92.3394 84.1682 94.9379 87 97C85.1047 89.0392 88.1209 79.4375 85 72z"/>
<path style="fill:#7c68ac; stroke:none;" d="M93 72L94 73L93 72z"/>
<path style="fill:#c29df7; stroke:none;" d="M102 72C102 78.3463 102.478 84.7924 101 91C104.686 87.7788 103.803 76.2978 102 72z"/>
<path style="fill:#875faa; stroke:none;" d="M112.667 72.3333C112.222 72.7778 113.278 72.7222 113.333 72.6667C113.778 72.2222 112.722 72.2778 112.667 72.3333z"/>
<path style="fill:#c5a9f5; stroke:none;" d="M117 72L117 83C118.431 79.59 118.431 75.41 117 72z"/>
<path style="fill:#936ec7; stroke:none;" d="M123 72L124 73L123 72z"/>
<path style="fill:#4e3387; stroke:none;" d="M124 72L125 73L124 72z"/>
<path style="fill:#694995; stroke:none;" d="M130.667 72.3333C130.222 72.7777 131.278 72.7222 131.333 72.6667C131.778 72.2222 130.722 72.2778 130.667 72.3333z"/>
<path style="fill:#7551a3; stroke:none;" d="M135 85C136.44 81.5676 136 77.7002 136 74C137.915 75.2767 137.085 75.2767 139 74C132.724 70.4567 134.009 81.6485 135 85z"/>
<path style="fill:#a6a1d0; stroke:none;" d="M60.6667 73.3333C60.2222 73.7778 61.2778 73.7222 61.3333 73.6667C61.7777 73.2223 60.7223 73.2777 60.6667 73.3333z"/>
<path style="fill:#280564; stroke:none;" d="M78 73C79.1536 75.2489 79.7511 75.8464 82 77C80.7853 74.999 80.001 74.2147 78 73z"/>
<path style="fill:#d1b0ff; stroke:none;" d="M83 73L83 79C83.9511 76.7147 83.9511 75.2853 83 73z"/>
<path style="fill:#281061; stroke:none;" d="M89 73L89 82C90.2561 79.0059 90.2561 75.9941 89 73z"/>
<path style="fill:#a58ed3; stroke:none;" d="M92 73L93 74L92 73z"/>
<path style="fill:#f3e0ff; stroke:none;" d="M93 73L93 75C94.6351 74.455 94.4549 74.6352 95 73L93 73z"/>
<path style="fill:#e4bdff; stroke:none;" d="M112.667 73.3333C112.222 73.7778 113.278 73.7222 113.333 73.6667C113.778 73.2222 112.722 73.2778 112.667 73.3333z"/>
<path style="fill:#2c095e; stroke:none;" d="M118 73L118 82C119.377 78.9055 119.694 75.9669 118 73z"/>
<path style="fill:#9e79d2; stroke:none;" d="M122 73L123 74L122 73z"/>
<path style="fill:#4d2a82; stroke:none;" d="M123 73L124 74L123 73z"/>
<path style="fill:#c7aafa; stroke:none;" d="M127 73L128 74L127 73z"/>
<path style="fill:#4d3684; stroke:none;" d="M128 73L129 74L128 73z"/>
<path style="fill:#fff2ff; stroke:none;" d="M130.667 73.3333C130.222 73.7777 131.278 73.7223 131.333 73.6667C131.778 73.2222 130.722 73.2778 130.667 73.3333z"/>
<path style="fill:#4e397e; stroke:none;" d="M92 74L93 75L92 74z"/>
<path style="fill:#6e599c; stroke:none;" d="M94 74L95 75L94 74z"/>
<path style="fill:#3b1c6d; stroke:none;" d="M112.667 74.3333C112.222 74.7778 113.278 74.7222 113.333 74.6667C113.778 74.2222 112.722 74.2778 112.667 74.3333z"/>
<path style="fill:#b38fe6; stroke:none;" d="M121 74L122 75L121 74z"/>
<path style="fill:#4c287d; stroke:none;" d="M122 74L123 75L122 74z"/>
<path style="fill:#ad86d3; stroke:none;" d="M126 74L127 75L126 74z"/>
<path style="fill:#665692; stroke:none;" d="M129 76C130.58 75.3164 130.777 75.1952 132 74C130.42 74.6836 130.223 74.8048 129 76z"/>
<path style="fill:#c66db5; stroke:none;" d="M138 74L139 75L138 74z"/>
<path style="fill:#904a86; stroke:none;" d="M139 74L140 75L139 74z"/>
<path style="fill:#290c62; stroke:none;" d="M60 75C61.2228 76.1952 61.42 76.3164 63 77C61.7772 75.8048 61.58 75.6836 60 75z"/>
<path style="fill:#290157; stroke:none;" d="M68 75L68 80C68.8299 77.9695 68.8299 77.0305 68 75z"/>
<path style="fill:#3e247b; stroke:none;" d="M73 77C75.0924 76.5943 75.0198 76.7833 76 75C74.42 75.6836 74.2228 75.8048 73 77z"/>
<path style="fill:#ccacff; stroke:none;" d="M120 75L121 76L120 75z"/>
<path style="fill:#432074; stroke:none;" d="M121 75L122 76L121 75z"/>
<path style="fill:#b087da; stroke:none;" d="M125 75L126 76L125 75z"/>
<path style="fill:#18004e; stroke:none;" d="M131 75C128.731 77.6715 127.522 79.5327 127 83L125 83C125.659 80.3907 126.687 78.3604 128 76C123.548 77.4773 123.69 82.0202 122 86C130.502 88.0186 137.727 83.4593 131 75z"/>
<path style="fill:#893b7a; stroke:none;" d="M138 75L139 76L138 75z"/>
<path style="fill:#2d0e6a; stroke:none;" d="M53 76L53 78C54.8782 77.8241 56.1994 77.5618 58 77C56.231 76.2211 54.964 76.0876 53 76z"/>
<path style="fill:#492a84; stroke:none;" d="M57 77C58.769 77.7789 60.0359 77.9124 62 78C60.0435 76.6805 59.3919 76.7005 57 77z"/>
<path style="fill:#6f55ac; stroke:none;" d="M76 76L77 77L76 76z"/>
<path style="fill:#654c9c; stroke:none;" d="M119 76L119 86C121.126 82.7481 120.647 79.4334 119 76z"/>
<path style="fill:#8265b5; stroke:none;" d="M120 76L120 81C120.83 78.9695 120.83 78.0305 120 76z"/>
<path style="fill:#47247c; stroke:none;" d="M123 76L124 77L123 76z"/>
<path style="fill:#9c7cd5; stroke:none;" d="M124 76L125 77L124 76z"/>
<path style="fill:#46297d; stroke:none;" d="M126 80C127.753 78.6697 128.67 77.7525 130 76C127.751 77.1535 127.154 77.7511 126 80z"/>
<path style="fill:#411a76; stroke:none;" d="M141 76L142 77L141 76z"/>
<path style="fill:#8e6fc7; stroke:none;" d="M62 77L63 78L62 77z"/>
<path style="fill:#45297b; stroke:none;" d="M63 77L64 78L63 77z"/>
<path style="fill:#765cb3; stroke:none;" d="M77 77L78 78L77 77z"/>
<path style="fill:#603290; stroke:none;" d="M105 77L105 89C106.512 85.3957 106.512 80.6043 105 77z"/>
<path style="fill:#efc9ff; stroke:none;" d="M112 77L112 80C113.797 80 113.521 79.9857 115 79C113.777 77.8048 113.58 77.6836 112 77z"/>
<path style="fill:#64418b; stroke:none;" d="M114 77L115 78L114 77z"/>
<path style="fill:#37176d; stroke:none;" d="M122 77L122 83C122.951 80.7147 122.951 79.2853 122 77z"/>
<path style="fill:#a287db; stroke:none;" d="M123 77C122.883 79.7301 122.501 82.3142 122 85C123.993 82.3692 124.275 80.0695 123 77z"/>
<path style="fill:#54218e; stroke:none;" d="M140.333 77.6667C140.278 77.7223 140.222 78.7778 140.667 78.3333C140.722 78.2778 140.778 77.2222 140.333 77.6667z"/>
<path style="fill:#a872e0; stroke:none;" d="M141.333 77.6667C141.278 77.7223 141.222 78.7777 141.667 78.3333C141.722 78.2778 141.778 77.2222 141.333 77.6667z"/>
<path style="fill:#51297c; stroke:none;" d="M142 77L143 78L142 77z"/>
<path style="fill:#947dc9; stroke:none;" d="M63 78L64 79L63 78z"/>
<path style="fill:#5c468e; stroke:none;" d="M64 78L65 79L64 78z"/>
<path style="fill:#6c4da4; stroke:none;" d="M78 78L79 79L78 78z"/>
<path style="fill:#b189e5; stroke:none;" d="M86 78L86 91C87.5909 87.2087 87.5909 81.7913 86 78z"/>
<path style="fill:#1e0058; stroke:none;" d="M55 79C54.3189 83.0229 54.9549 86.9423 54 91C57.3958 88.2136 56.6084 82.7366 55 79z"/>
<path style="fill:#cea9ff; stroke:none;" d="M64.3333 79.6667C64.2778 79.7222 64.2222 80.7778 64.6667 80.3333C64.7222 80.2778 64.7778 79.2222 64.3333 79.6667z"/>
<path style="fill:#7558aa; stroke:none;" d="M79 79L80 80L79 79z"/>
<path style="fill:#311967; stroke:none;" d="M80.3333 79.6667C80.2778 79.7222 80.2222 80.7778 80.6667 80.3333C80.7222 80.2778 80.7778 79.2222 80.3333 79.6667z"/>
<path style="fill:#c2a1f0; stroke:none;" d="M83 79L83 97C84.9516 92.349 84.9516 83.651 83 79z"/>
<path style="fill:#7961b3; stroke:none;" d="M114 79L115 80L114 79z"/>
<path style="fill:#291260; stroke:none;" d="M125 79C125.307 81.1227 125.382 81.686 127 83C126.489 81.0478 126.267 80.543 125 79z"/>
<path style="fill:#a177e3; stroke:none;" d="M140 79L141 80L140 79z"/>
<path style="fill:#492964; stroke:none;" d="M143.333 79.6667C143.278 79.7223 143.222 80.7777 143.667 80.3333C143.722 80.2778 143.778 79.2222 143.333 79.6667z"/>
<path style="fill:#735291; stroke:none;" d="M144.333 79.6667C144.278 79.7223 144.222 80.7777 144.667 80.3333C144.722 80.2778 144.778 79.2222 144.333 79.6667z"/>
<path style="fill:#834ab6; stroke:none;" d="M58 80L58 82L60 82L60 80L58 80z"/>
<path style="fill:#7959a8; stroke:none;" d="M61.6667 80.3333C61.2222 80.7778 62.2778 80.7222 62.3333 80.6667C62.7778 80.2222 61.7222 80.2778 61.6667 80.3333z"/>
<path style="fill:#74509a; stroke:none;" d="M69 80L70 81L69 80z"/>
<path style="fill:#c19de7; stroke:none;" d="M70 80L71 81L70 80z"/>
<path style="fill:#d9bdff; stroke:none;" d="M96 80L96 96C97.8123 91.6811 97.8123 84.3189 96 80z"/>
<path style="fill:#582c8d; stroke:none;" d="M138 80L139 81L138 80z"/>
<path style="fill:#b78bee; stroke:none;" d="M139 80L140 81L139 80z"/>
<path style="fill:#f9daff; stroke:none;" d="M61.6667 81.3333C61.2222 81.7778 62.2778 81.7222 62.3333 81.6667C62.7778 81.2222 61.7222 81.2778 61.6667 81.3333z"/>
<path style="fill:#956ecd; stroke:none;" d="M64 81C65.2228 82.1952 65.42 82.3164 67 83C65.7772 81.8048 65.58 81.6836 64 81z"/>
<path style="fill:#5c4084; stroke:none;" d="M70 81L71 82L70 81z"/>
<path style="fill:#c8abf4; stroke:none;" d="M71 81L72 82L71 81z"/>
<path style="fill:#6a539e; stroke:none;" d="M92 81L93 82L92 81z"/>
<path style="fill:#b299e1; stroke:none;" d="M93 81L94 82L93 81z"/>
<path style="fill:#641f4d; stroke:none;" d="M130.667 81.3333C130.222 81.7778 131.278 81.7222 131.333 81.6667C131.778 81.2222 130.722 81.2778 130.667 81.3333z"/>
<path style="fill:#d6b4fe; stroke:none;" d="M138 81L138 87C138.951 84.7148 138.951 83.2853 138 81z"/>
<path style="fill:#563586; stroke:none;" d="M54 82L54 90C55.1614 87.2301 55.1614 84.7699 54 82z"/>
<path style="fill:#461580; stroke:none;" d="M58 82L58 84L60 84L60 82L58 82z"/>
<path style="fill:#6a4d9d; stroke:none;" d="M61.6667 82.3333C61.2222 82.7778 62.2778 82.7222 62.3333 82.6667C62.7778 82.2222 61.7222 82.2778 61.6667 82.3333z"/>
<path style="fill:#4a3c81; stroke:none;" d="M71 82L72 83L71 82z"/>
<path style="fill:#d2abff; stroke:none;" d="M72 82L73 83L72 82z"/>
<path style="fill:#481d80; stroke:none;" d="M73 82L74 83L73 82z"/>
<path style="fill:#caadfd; stroke:none;" d="M89 82L90 83L89 82z"/>
<path style="fill:#8367bc; stroke:none;" d="M90 82L91 83L90 82z"/>
<path style="fill:#a987d7; stroke:none;" d="M92 82L93 83L92 82z"/>
<path style="fill:#ffe1ff; stroke:none;" d="M93 82L94 83L93 82z"/>
<path style="fill:#583887; stroke:none;" d="M94 82L95 83L94 82z"/>
<path style="fill:#35176a; stroke:none;" d="M109 82C111.613 83.0977 114.165 82.9928 117 83C114.387 81.9023 111.835 82.0072 109 82z"/>
<path style="fill:#190049; stroke:none;" d="M118 82C115.196 84.1247 112.466 83.9885 109 84L109 86C111.843 86.4213 113.012 86.9389 115 89C112.894 88.3562 111.205 88.0941 109 88L109 97L96 97C100.279 99.9808 108.749 98 114 98C114.184 92.3237 119.961 87.2502 118 82z"/>
<path style="fill:#651d4a; stroke:none;" d="M129.333 82.6667C129.278 82.7223 129.222 83.7777 129.667 83.3333C129.722 83.2778 129.778 82.2222 129.333 82.6667z"/>
<path style="fill:#da6e9a; stroke:none;" d="M130 82L130 84L132 84L132 82L130 82z"/>
<path style="fill:#482c81; stroke:none;" d="M62 83L62 87C62.7102 85.2405 62.7102 84.7595 62 83z"/>
<path style="fill:#613d9f; stroke:none;" d="M66 83L67 84L66 83z"/>
<path style="fill:#9c7de1; stroke:none;" d="M67 83L68 84L67 83z"/>
<path style="fill:#5e3491; stroke:none;" d="M72 83L73 84L72 83z"/>
<path style="fill:#e0b1ff; stroke:none;" d="M73 83L74 84L73 83z"/>
<path style="fill:#522d8e; stroke:none;" d="M74 83L75 84L74 83z"/>
<path style="fill:#977bc8; stroke:none;" d="M88 83C88.0005 87.6437 87.5188 91.5909 91 95C89.6422 90.6468 88.9422 87.508 90 83L88 83z"/>
<path style="fill:#9d73ca; stroke:none;" d="M115.667 83.3333C115.222 83.7778 116.278 83.7222 116.333 83.6667C116.778 83.2222 115.722 83.2778 115.667 83.3333z"/>
<path style="fill:#6c4299; stroke:none;" d="M117 83L118 84L117 83z"/>
<path style="fill:#9a7cbe; stroke:none;" d="M141 83L142 84L141 83z"/>
<path style="fill:#4a308d; stroke:none;" d="M58 84L58 89C59.4215 87.2115 59.6974 86.2943 60 84L58 84z"/>
<path style="fill:#593997; stroke:none;" d="M67 84L68 85L67 84z"/>
<path style="fill:#b38af0; stroke:none;" d="M68 84L69 85L68 84z"/>
<path style="fill:#44217c; stroke:none;" d="M73 84L74 85L73 84z"/>
<path style="fill:#ceaafe; stroke:none;" d="M74 84C75.769 84.7789 77.0359 84.9124 79 85C77.231 84.2211 75.9641 84.0876 74 84z"/>
<path style="fill:#7a4cb5; stroke:none;" d="M79 84L80 88C80.7511 85.9535 80.6556 85.4043 79 84z"/>
<path style="fill:#410579; stroke:none;" d="M81.3333 84.6667C81.2778 84.7222 81.2222 85.7778 81.6667 85.3333C81.7222 85.2778 81.7778 84.2222 81.3333 84.6667z"/>
<path style="fill:#634d92; stroke:none;" d="M89 84L89 92C90.1614 89.2301 90.1614 86.7699 89 84z"/>
<path style="fill:#8659b4; stroke:none;" d="M120 84C120.545 85.6352 120.365 85.4549 122 86L122 84L120 84z"/>
<path style="fill:#ceaaf7; stroke:none;" d="M134 84L135 85L134 84z"/>
<path style="fill:#bc95e3; stroke:none;" d="M140 84L141 85L140 84z"/>
<path style="fill:#f5cdff; stroke:none;" d="M141 84L142 85L141 84z"/>
<path style="fill:#764daa; stroke:none;" d="M142 84L143 85L142 84z"/>
<path style="fill:#35094c; stroke:none;" d="M144 84C144.98 85.7833 144.908 85.5943 147 86C145.861 84.9846 145.388 84.6913 144 84z"/>
<path style="fill:#875b9b; stroke:none;" d="M145.667 84.3333C145.222 84.7777 146.278 84.7223 146.333 84.6667C146.778 84.2222 145.722 84.2778 145.667 84.3333z"/>
<path style="fill:#1d034d; stroke:none;" d="M65 85L67 89L62 87C61.9455 89.4115 61.4208 91.6257 61 94C63.0854 94 62.7241 93.8619 63 96C64.9161 95.1598 65.2226 95.0153 67 96C69.3915 92.4755 70.8264 91.7788 75 93C75.8917 91.0615 76.4018 90.481 78 89C74.0688 87.2882 69.232 85.8039 65 85z"/>
<path style="fill:#532c8d; stroke:none;" d="M68 85L69 86L68 85z"/>
<path style="fill:#ab84e6; stroke:none;" d="M69 85L70 86L69 85z"/>
<path style="fill:#451b79; stroke:none;" d="M70 85L71 86L70 85z"/>
<path style="fill:#4c2e84; stroke:none;" d="M99 85L99 88L101 88L101 85L99 85z"/>
<path style="fill:#d8a7ff; stroke:none;" d="M120 85L121 86L120 85z"/>
<path style="fill:#c8b0f8; stroke:none;" d="M133 85L134 86L133 85z"/>
<path style="fill:#78529c; stroke:none;" d="M134 85L135 86L134 85z"/>
<path style="fill:#502e7e; stroke:none;" d="M140 85L141 86L140 85z"/>
<path style="fill:#9a78ca; stroke:none;" d="M141 85L142 86L141 85z"/>
<path style="fill:#b087ed; stroke:none;" d="M70 86L71 87L70 86z"/>
<path style="fill:#4f238a; stroke:none;" d="M71 86L72 87L71 86z"/>
<path style="fill:#492783; stroke:none;" d="M81 86L80 98C81.9564 94.3202 82.6289 89.8907 81 86z"/>
<path style="fill:#432078; stroke:none;" d="M109 86C110.648 87.9785 112.5 88.312 115 89C115 87.2032 114.986 87.4785 114 86L109 86z"/>
<path style="fill:#643d92; stroke:none;" d="M110.667 86.3333C110.222 86.7778 111.278 86.7222 111.333 86.6667C111.778 86.2222 110.722 86.2778 110.667 86.3333z"/>
<path style="fill:#8a73bf; stroke:none;" d="M118 89C119.457 87.8966 119.897 87.4566 121 86C118.876 86.8993 118.899 86.8764 118 89z"/>
<path style="fill:#040033; stroke:none;" d="M116 99C118.262 93.8218 120.619 90.6165 124 86C117.27 87.8957 116.023 92.5984 116 99z"/>
<path style="fill:#522a7f; stroke:none;" d="M131 86L132 87L131 86z"/>
<path style="fill:#dcb2ff; stroke:none;" d="M132 86L133 87L132 86z"/>
<path style="fill:#6b4398; stroke:none;" d="M133 86L134 87L133 86z"/>
<path style="fill:#431d75; stroke:none;" d="M63.6667 87.3333C63.2222 87.7777 64.2778 87.7222 64.3333 87.6667C64.7778 87.2222 63.7222 87.2778 63.6667 87.3333z"/>
<path style="fill:#c095ef; stroke:none;" d="M65.6667 87.3333C65.2222 87.7777 66.2778 87.7222 66.3333 87.6667C66.7778 87.2222 65.7222 87.2778 65.6667 87.3333z"/>
<path style="fill:#c0a7fc; stroke:none;" d="M71 87C73.3316 87.9845 75.4566 87.9813 78 88C75.6685 87.0155 73.5433 87.0187 71 87z"/>
<path style="fill:#8661d2; stroke:none;" d="M78 87C78.9802 88.7833 78.9076 88.5943 81 89C79.8607 87.9846 79.3884 87.6913 78 87z"/>
<path style="fill:#93498b; stroke:none;" d="M92 87L93 88L92 87z"/>
<path style="fill:#d7b8ff; stroke:none;" d="M123 87C125.89 88.2129 128.874 87.9983 132 88C129.11 86.787 126.126 87.0017 123 87z"/>
<path style="fill:#6e3f9c; stroke:none;" d="M132 87L133 88L132 87z"/>
<path style="fill:#9d7cd0; stroke:none;" d="M136 89C137.58 88.3164 137.777 88.1952 139 87C137.42 87.6836 137.223 87.8048 136 89z"/>
<path style="fill:#7667a1; stroke:none;" d="M50 88L51 89L50 88z"/>
<path style="fill:#745cb5; stroke:none;" d="M59 88L60 89L59 88z"/>
<path style="fill:#3d3277; stroke:none;" d="M65 88L66 89L65 88z"/>
<path style="fill:#74569d; stroke:none;" d="M66 88L67 89L66 88z"/>
<path style="fill:#8b3a7f; stroke:none;" d="M91.3333 88.6667C91.2778 88.7222 91.2222 89.7778 91.6667 89.3333C91.7222 89.2778 91.7778 88.2222 91.3333 88.6667z"/>
<path style="fill:#ee79c0; stroke:none;" d="M92.3333 88.6667C92.2778 88.7222 92.2223 89.7778 92.6667 89.3333C92.7222 89.2778 92.7778 88.2222 92.3333 88.6667z"/>
<path style="fill:#ba4a92; stroke:none;" d="M93.3333 88.6667C93.2778 88.7222 93.2222 89.7778 93.6667 89.3333C93.7222 89.2778 93.7778 88.2222 93.3333 88.6667z"/>
<path style="fill:#310e69; stroke:none;" d="M99.6667 88.3333C99.2222 88.7778 100.278 88.7222 100.333 88.6667C100.778 88.2222 99.7222 88.2778 99.6667 88.3333z"/>
<path style="fill:#c6a2ef; stroke:none;" d="M117 88L118 89L117 88z"/>
<path style="fill:#bd98e9; stroke:none;" d="M122 88L123 89L122 88z"/>
<path style="fill:#8462b1; stroke:none;" d="M123 88L124 89L123 88z"/>
<path style="fill:#9891c9; stroke:none;" d="M49 89L50 90L49 89z"/>
<path style="fill:#fffdff; stroke:none;" d="M50.3333 89.6667C50.2778 89.7222 50.2222 90.7778 50.6667 90.3333C50.7222 90.2778 50.7778 89.2222 50.3333 89.6667z"/>
<path style="fill:#907db5; stroke:none;" d="M51 89L52 90L51 89z"/>
<path style="fill:#6a54a8; stroke:none;" d="M60 89L61 90L60 89z"/>
<path style="fill:#160141; stroke:none;" d="M77 89C75.9387 91.2047 75.468 91.835 73 92C71.8966 93.4566 71.4566 93.8966 70 95C70.6836 93.42 70.8048 93.2228 72 92C68.9545 91.3117 68.4513 93.2417 68 96C72.325 96.0148 75.8838 96.7156 80 98C79.992 94.831 79.8996 92.0408 79 89L77 89z"/>
<path style="fill:#4d2d90; stroke:none;" d="M79 89L80 90L79 89z"/>
<path style="fill:#be98ff; stroke:none;" d="M80 89L81 90L80 89z"/>
<path style="fill:#8663bb; stroke:none;" d="M105 89L104 94C105.879 92.3768 105.916 91.3004 105 89z"/>
<path style="fill:#d5b5fe; stroke:none;" d="M116 89L117 90L116 89z"/>
<path style="fill:#78589d; stroke:none;" d="M117 89L118 90L117 89z"/>
<path style="fill:#d3b6ff; stroke:none;" d="M121 89L122 90L121 89z"/>
<path style="fill:#7d5bab; stroke:none;" d="M122 89L123 90L122 89z"/>
<path style="fill:#8e66c5; stroke:none;" d="M127 92L137 90C133.749 89.2191 129.262 89.4083 127 92z"/>
<path style="fill:#66399e; stroke:none;" d="M141 89C143.332 89.9845 145.457 89.9813 148 90C145.668 89.0155 143.543 89.0187 141 89z"/>
<path style="fill:#615088; stroke:none;" d="M51 90L52 91L51 90z"/>
<path style="fill:#5d4696; stroke:none;" d="M61 90L62 91L61 90z"/>
<path style="fill:#6720a8; stroke:none;" d="M65 90L65 92L67 92L67 90L65 90z"/>
<path style="fill:#3a0592; stroke:none;" d="M67.3333 90.6667C67.2778 90.7222 67.2222 91.7778 67.6667 91.3333C67.7222 91.2778 67.7778 90.2222 67.3333 90.6667z"/>
<path style="fill:#8d68a4; stroke:none;" d="M75.6667 90.3333C75.2222 90.7778 76.2778 90.7222 76.3333 90.6667C76.7778 90.2222 75.7222 90.2778 75.6667 90.3333z"/>
<path style="fill:#6d409c; stroke:none;" d="M80 90L80 93C80.6961 91.4463 80.6961 91.5537 80 90z"/>
<path style="fill:#926fc9; stroke:none;" d="M97 90C98.5061 90.683 99.3148 90.8259 101 91C99.4939 90.317 98.6852 90.1741 97 90z"/>
<path style="fill:#e7d8ff; stroke:none;" d="M115 90L116 91L115 90z"/>
<path style="fill:#5e4c8d; stroke:none;" d="M116 90L117 91L116 90z"/>
<path style="fill:#e9d5ff; stroke:none;" d="M120 90L121 91L120 90z"/>
<path style="fill:#6b569e; stroke:none;" d="M121 90L122 91L121 90z"/>
<path style="fill:#896cc2; stroke:none;" d="M140 90L141 91L140 90z"/>
<path style="fill:#5a4d83; stroke:none;" d="M50 91L51 92L50 91z"/>
<path style="fill:#fae8ff; stroke:none;" d="M51 91C52.7691 91.7789 54.0359 91.9124 56 92C54.231 91.2211 52.9641 91.0876 51 91z"/>
<path style="fill:#8a70c3; stroke:none;" d="M56 91C57.1036 93.3572 57.9564 94.3761 60 96C58.8965 93.6428 58.0436 92.6238 56 91z"/>
<path style="fill:#4b3381; stroke:none;" d="M62 91L63 92L62 91z"/>
<path style="fill:#3e1a53; stroke:none;" d="M75.6667 91.3333C75.2222 91.7778 76.2778 91.7222 76.3333 91.6667C76.7778 91.2222 75.7222 91.2778 75.6667 91.3333z"/>
<path style="fill:#e2b2ff; stroke:none;" d="M86 91L86 96C86.8299 93.9695 86.8299 93.0305 86 91z"/>
<path style="fill:#5f2e8d; stroke:none;" d="M97 91C98.7691 91.7789 100.036 91.9124 102 92C100.231 91.2211 98.9641 91.0876 97 91z"/>
<path style="fill:#785caa; stroke:none;" d="M114 91L115 99C116.098 96.3873 115.993 93.8355 116 91L114 91z"/>
<path style="fill:#3b2867; stroke:none;" d="M118 91L119 92L118 91z"/>
<path style="fill:#ecd9ff; stroke:none;" d="M119 91L120 92L119 91z"/>
<path style="fill:#634e93; stroke:none;" d="M120 91L121 92L120 91z"/>
<path style="fill:#be99eb; stroke:none;" d="M126 91L127 92L126 91z"/>
<path style="fill:#6b3a93; stroke:none;" d="M128 91C130.332 91.9845 132.457 91.9813 135 92C132.668 91.0155 130.543 91.0187 128 91z"/>
<path style="fill:#957bc7; stroke:none;" d="M139 91L140 92L139 91z"/>
<path style="fill:#e95b91; stroke:none;" d="M70 92C70.9802 93.7833 70.9076 93.5943 73 94C71.7772 92.8048 71.58 92.6836 70 92z"/>
<path style="fill:#73225c; stroke:none;" d="M72 92L73 93L72 92z"/>
<path style="fill:#4e397a; stroke:none;" d="M117 92L118 93L117 92z"/>
<path style="fill:#fbe5ff; stroke:none;" d="M118 92L119 93L118 92z"/>
<path style="fill:#655093; stroke:none;" d="M119 92L120 93L119 92z"/>
<path style="fill:#442077; stroke:none;" d="M124 92L125 93L124 92z"/>
<path style="fill:#b08de4; stroke:none;" d="M125 92L126 93L125 92z"/>
<path style="fill:#4c3186; stroke:none;" d="M126 92L127 93L126 92z"/>
<path style="fill:#ac7fd2; stroke:none;" d="M138 92L139 93L138 92z"/>
<path style="fill:#af4b67; stroke:none;" d="M142.333 92.6667C142.278 92.7222 142.222 93.7778 142.667 93.3333C142.722 93.2778 142.778 92.2222 142.333 92.6667z"/>
<path style="fill:#e57994; stroke:none;" d="M143 92L143 94L145 94C144.455 92.3648 144.635 92.5451 143 92z"/>
<path style="fill:#8a4b88; stroke:none;" d="M144 92L145 93L144 92z"/>
<path style="fill:#23002d; stroke:none;" d="M145 92C144.026 93.9956 144.262 93.7808 142 94C143.54 95.8031 144.597 95.832 147 96L147 92L145 92z"/>
<path style="fill:#66419b; stroke:none;" d="M99 93C100.769 93.7789 102.036 93.9124 104 94C102.231 93.2211 100.964 93.0876 99 93z"/>
<path style="fill:#ae93e5; stroke:none;" d="M117 93L117 98C117.83 95.9695 117.83 95.0305 117 93z"/>
<path style="fill:#60449a; stroke:none;" d="M118 93L118 100C119.059 97.4657 119.059 95.5343 118 93z"/>
<path style="fill:#492c80; stroke:none;" d="M123 93L124 94L123 93z"/>
<path style="fill:#b38de6; stroke:none;" d="M124 93L125 94L124 93z"/>
<path style="fill:#71559f; stroke:none;" d="M129 93C131.613 94.0977 134.165 93.9928 137 94C134.387 92.9023 131.836 93.0072 129 93z"/>
<path style="fill:#b98adb; stroke:none;" d="M137 93L138 94L137 93z"/>
<path style="fill:#7029b9; stroke:none;" d="M64 94L64 96L66 96L66 94L64 94z"/>
<path style="fill:#602c81; stroke:none;" d="M66 94C64.457 95.2667 63.9522 95.4893 62 96C66.4714 97.8763 72.1834 97 77 97C73.3704 95.4764 69.5858 95.9942 66 94z"/>
<path style="fill:#ac5894; stroke:none;" d="M70.6667 94.3333C70.2222 94.7778 71.2778 94.7222 71.3333 94.6667C71.7778 94.2222 70.7222 94.2778 70.6667 94.3333z"/>
<path style="fill:#c7aaff; stroke:none;" d="M91 94L92 95L91 94z"/>
<path style="fill:#9075c2; stroke:none;" d="M114 94L114 98C114.71 96.2405 114.71 95.7595 114 94z"/>
<path style="fill:#55388d; stroke:none;" d="M122 94L123 95L122 94z"/>
<path style="fill:#b395eb; stroke:none;" d="M123 94L124 95L123 94z"/>
<path style="fill:#c6a5ff; stroke:none;" d="M128 94L129 95L128 94z"/>
<path style="fill:#8760b6; stroke:none;" d="M129 94C131.613 95.0977 134.165 94.9928 137 95C134.387 93.9023 131.836 94.0072 129 94z"/>
<path style="fill:#774272; stroke:none;" d="M143.667 94.3333C143.222 94.7777 144.278 94.7223 144.333 94.6667C144.778 94.2222 143.722 94.2778 143.667 94.3333z"/>
<path style="fill:#634c83; stroke:none;" d="M147.667 94.3333C147.222 94.7777 148.278 94.7222 148.333 94.6667C148.778 94.2222 147.722 94.2778 147.667 94.3333z"/>
<path style="fill:#b59af3; stroke:none;" d="M60 95L61 96L60 95z"/>
<path style="fill:#8a61bb; stroke:none;" d="M87 95L88 96L87 95z"/>
<path style="fill:#5a378e; stroke:none;" d="M91 95L92 96L91 95z"/>
<path style="fill:#ddb4ff; stroke:none;" d="M92 95L93 96L92 95z"/>
<path style="fill:#4a2176; stroke:none;" d="M93 95L94 96L93 95z"/>
<path style="fill:#4b2885; stroke:none;" d="M110.333 95.6667C110.278 95.7222 110.222 96.7778 110.667 96.3333C110.722 96.2778 110.778 95.2222 110.333 95.6667z"/>
<path style="fill:#af8bdd; stroke:none;" d="M111 95L111 97L113 97L113 95L111 95z"/>
<path style="fill:#593e8d; stroke:none;" d="M121 95L122 96L121 95z"/>
<path style="fill:#b89aed; stroke:none;" d="M122 95L123 96L122 95z"/>
<path style="fill:#bc96f4; stroke:none;" d="M127 95L128 96L127 95z"/>
<path style="fill:#543990; stroke:none;" d="M128 95L129 96L128 95z"/>
<path style="fill:#dcbcfa; stroke:none;" d="M147 95L148 96L147 95z"/>
<path style="fill:#fffdff; stroke:none;" d="M148 95L149 96L148 95z"/>
<path style="fill:#5e4095; stroke:none;" d="M60 96L61 97L60 96z"/>
<path style="fill:#ceafff; stroke:none;" d="M61 96L62 97L61 96z"/>
<path style="fill:#5d3a94; stroke:none;" d="M84 96L85 97L84 96z"/>
<path style="fill:#aa89dc; stroke:none;" d="M87 96C88.4498 97.6076 89.0514 98.0643 91 99C89.5502 97.3924 88.9486 96.9357 87 96z"/>
<path style="fill:#4d2e79; stroke:none;" d="M92 96L93 97L92 96z"/>
<path style="fill:#d8beff; stroke:none;" d="M93 96L94 97L93 96z"/>
<path style="fill:#5f468c; stroke:none;" d="M94 96L95 97L94 96z"/>
<path style="fill:#5f378b; stroke:none;" d="M96 96L97 97L96 96z"/>
<path style="fill:#cfa6f5; stroke:none;" d="M97 96C100.432 97.4403 104.3 97 108 97C104.568 95.5597 100.7 96 97 96z"/>
<path style="fill:#4a2878; stroke:none;" d="M108 96L109 97L108 96z"/>
<path style="fill:#7d61b1; stroke:none;" d="M120 96L121 97L120 96z"/>
<path style="fill:#ba9fee; stroke:none;" d="M121 96L122 97L121 96z"/>
<path style="fill:#09002e; stroke:none;" d="M122 96C120.919 99.6568 121 103.199 121 107L125 107L125 100C124.126 102.052 124.047 103.747 124 106L122 106C122.104 102.415 122.937 99.406 124 96L122 96z"/>
<path style="fill:#b38deb; stroke:none;" d="M126 96L127 97L126 96z"/>
<path style="fill:#553289; stroke:none;" d="M127 96L128 97L127 96z"/>
<path style="fill:#542c80; stroke:none;" d="M130 96C134.974 98.0872 141.638 97 147 97C142.026 94.9128 135.362 96 130 96z"/>
<path style="fill:#ab8bdd; stroke:none;" d="M147.667 96.3333C147.222 96.7777 148.278 96.7222 148.333 96.6667C148.778 96.2222 147.722 96.2778 147.667 96.3333z"/>
<path style="fill:#7d60b6; stroke:none;" d="M56 97L57 98L56 97z"/>
<path style="fill:#624593; stroke:none;" d="M61 97L62 98L61 97z"/>
<path style="fill:#cda8f5; stroke:none;" d="M62 97C63.7691 97.7789 65.0359 97.9124 67 98C65.231 97.2211 63.9641 97.0876 62 97z"/>
<path style="fill:#b38ae2; stroke:none;" d="M67 97C70.1633 98.3274 73.5856 97.9996 77 98C73.8367 96.6726 70.4144 97.0004 67 97z"/>
<path style="fill:#d2b0ff; stroke:none;" d="M77 97L78 98L77 97z"/>
<path style="fill:#aa8ce4; stroke:none;" d="M84 97L85 98L84 97z"/>
<path style="fill:#694ba4; stroke:none;" d="M85 97L86 98L85 97z"/>
<path style="fill:#130050; stroke:none;" d="M86 97C86.5711 98.5127 86.8636 99.4272 87 101C91.344 103.253 94.5732 106.939 99 109C97.246 103.558 91.0447 99.3108 86 97z"/>
<path style="fill:#dac1ff; stroke:none;" d="M94 97L95 98L94 97z"/>
<path style="fill:#775da3; stroke:none;" d="M95 97L96 98L95 97z"/>
<path style="fill:#e9ceff; stroke:none;" d="M120 97L120 101C120.71 99.2405 120.71 98.7595 120 97z"/>
<path style="fill:#b996ed; stroke:none;" d="M125 97L126 98L125 97z"/>
<path style="fill:#502c89; stroke:none;" d="M126 97L127 98L126 97z"/>
<path style="fill:#4f2d7e; stroke:none;" d="M129 97L130 98L129 97z"/>
<path style="fill:#c093eb; stroke:none;" d="M130 97C133.163 98.3274 136.586 97.9996 140 98C136.837 96.6726 133.414 97.0004 130 97z"/>
<path style="fill:#ae7edb; stroke:none;" d="M140 97C141.769 97.779 143.036 97.9124 145 98C143.231 97.2211 141.964 97.0876 140 97z"/>
<path style="fill:#8c64bf; stroke:none;" d="M145.667 97.3333C145.222 97.7777 146.278 97.7223 146.333 97.6667C146.778 97.2222 145.722 97.2778 145.667 97.3333z"/>
<path style="fill:#5b358f; stroke:none;" d="M147 97L148 98L147 97z"/>
<path style="fill:#45297d; stroke:none;" d="M77 98L78 99L77 98z"/>
<path style="fill:#c1a5f9; stroke:none;" d="M78 98L79 99L78 98z"/>
<path style="fill:#53378d; stroke:none;" d="M79 98L80 99L79 98z"/>
<path style="fill:#9e7cd3; stroke:none;" d="M85.6667 98.3333C85.2222 98.7778 86.2778 98.7222 86.3333 98.6667C86.7778 98.2222 85.7222 98.2778 85.6667 98.3333z"/>
<path style="fill:#dec2ff; stroke:none;" d="M95 98L96 99L95 98z"/>
<path style="fill:#9678c2; stroke:none;" d="M96 98L97 99L96 98z"/>
<path style="fill:#34244e; stroke:none;" d="M100 98C104.217 99.7693 109.459 99 114 99C109.783 97.2307 104.541 98 100 98z"/>
<path style="fill:#b698db; stroke:none;" d="M114.333 98.6667C114.278 98.7222 114.222 99.7778 114.667 99.3333C114.722 99.2778 114.778 98.2222 114.333 98.6667z"/>
<path style="fill:#9376ca; stroke:none;" d="M117 98L117 104C117.951 101.715 117.951 100.285 117 98z"/>
<path style="fill:#614494; stroke:none;" d="M123 98L124 99L123 98z"/>
<path style="fill:#c0a0f5; stroke:none;" d="M124 98L125 99L124 98z"/>
<path style="fill:#45237d; stroke:none;" d="M125 98L126 99L125 98z"/>
<path style="fill:#512085; stroke:none;" d="M128 98L129 99L128 98z"/>
<path style="fill:#b183e4; stroke:none;" d="M129 98L130 99L129 98z"/>
<path style="fill:#17014c; stroke:none;" d="M125 107L134 100C128.844 97.4629 125.725 102.303 125 107z"/>
<path style="fill:#1b003c; stroke:none;" d="M131 98C132.248 98.6848 132.548 98.7488 134 99C131.146 102.161 128.426 105.504 126 109C129.368 109.802 132.545 109.99 136 110L136 99C137.195 100.223 137.316 100.42 138 102C138.683 100.494 138.826 99.6852 139 98L131 98z"/>
<path style="fill:#260130; stroke:none;" d="M147 99C147.791 100.761 147.962 100.545 147 102C148.377 102.911 149.44 103.404 151 104C150.691 101.553 150.195 100.166 149 98L147 99z"/>
<path style="fill:#b89eef; stroke:none;" d="M79 99L80 100L79 99z"/>
<path style="fill:#6f53a8; stroke:none;" d="M80 99L81 100L80 99z"/>
<path style="fill:#d3b3ff; stroke:none;" d="M86 99L87 100L86 99z"/>
<path style="fill:#8060b5; stroke:none;" d="M87 99L88 100L87 99z"/>
<path style="fill:#6d50a5; stroke:none;" d="M90 99L91 100L90 99z"/>
<path style="fill:#bda1f2; stroke:none;" d="M91 99L92 100L91 99z"/>
<path style="fill:#f9e0ff; stroke:none;" d="M96.6667 99.3333C96.2222 99.7778 97.2778 99.7222 97.3333 99.6667C97.7778 99.2222 96.7222 99.2778 96.6667 99.3333z"/>
<path style="fill:#beace2; stroke:none;" d="M98 102L101 100C98.6871 98.8834 97.9877 99.6095 98 102z"/>
<path style="fill:#ffefff; stroke:none;" d="M101 99C104.959 100.661 109.737 100 114 100C110.041 98.3389 105.263 99 101 99z"/>
<path style="fill:#130246; stroke:none;" d="M115 99C114.776 100.684 114.782 101.314 115 103C110.889 103.003 107.671 103.041 104 105C105.103 103.543 105.543 103.103 107 102C105.231 101.221 103.964 101.088 102 101C102.021 103.85 102.19 106.271 103 109C107.904 105.704 111.016 104.021 117 104L117 99L115 99z"/>
<path style="fill:#37235e; stroke:none;" d="M122 99L122 106C123.059 103.466 123.059 101.534 122 99z"/>
<path style="fill:#e9d4ff; stroke:none;" d="M123 99L123 105C123.951 102.715 123.951 101.285 123 99z"/>
<path style="fill:#4a2587; stroke:none;" d="M127 99L128 100L127 99z"/>
<path style="fill:#b384e5; stroke:none;" d="M128 99L129 100L128 99z"/>
<path style="fill:#975a84; stroke:none;" d="M136.667 99.3333C136.222 99.7777 137.278 99.7222 137.333 99.6667C137.778 99.2222 136.722 99.2778 136.667 99.3333z"/>
<path style="fill:#55398b; stroke:none;" d="M52 100C53.314 101.618 53.8772 101.693 56 102C54.6234 101.089 53.5601 100.596 52 100z"/>
<path style="fill:#3b126c; stroke:none;" d="M57 100C62.7147 102.398 70.8308 101 77 101C71.2853 98.602 63.1692 100 57 100z"/>
<path style="fill:#b99cef; stroke:none;" d="M80 100L81 101L80 100z"/>
<path style="fill:#7c63b5; stroke:none;" d="M81 100L82 101L81 100z"/>
<path style="fill:#3f1f6e; stroke:none;" d="M86.3333 100.667C86.2778 100.722 86.2222 101.778 86.6667 101.333C86.7222 101.278 86.7778 100.222 86.3333 100.667z"/>
<path style="fill:#58368e; stroke:none;" d="M91 100L92 101L91 100z"/>
<path style="fill:#b896ee; stroke:none;" d="M92 100L93 101L92 100z"/>
<path style="fill:#070032; stroke:none;" d="M99 100C100.446 103.412 100.959 106.304 101 110C102.629 107.184 102.056 104.238 102 101L114 101C109.529 99.1237 103.817 100 99 100z"/>
<path style="fill:#503586; stroke:none;" d="M118 100L118 105C118.83 102.97 118.83 102.03 118 100z"/>
<path style="fill:#4a298d; stroke:none;" d="M126 100L127 101L126 100z"/>
<path style="fill:#997bd7; stroke:none;" d="M127 100L128 101L127 100z"/>
<path style="fill:#b36d9a; stroke:none;" d="M136.667 100.333C136.222 100.778 137.278 100.722 137.333 100.667C137.778 100.222 136.722 100.278 136.667 100.333z"/>
<path style="fill:#3d196c; stroke:none;" d="M141 100C140.857 102.406 140.735 104.612 141 107C141.779 105.231 141.912 103.964 142 102L144 102L144 106C145.336 104.028 145.677 102.367 146 100L141 100z"/>
<path style="fill:#9e5795; stroke:none;" d="M147 100L147 102L149 102L149 100L147 100z"/>
<path style="fill:#8964c6; stroke:none;" d="M56 101C57.5061 101.683 58.3148 101.826 60 102C58.494 101.317 57.6852 101.174 56 101z"/>
<path style="fill:#be9aef; stroke:none;" d="M60 101C64.974 103.087 71.6381 102 77 102C72.026 99.9128 65.3619 101 60 101z"/>
<path style="fill:#633c8b; stroke:none;" d="M77 101L78 102L77 101z"/>
<path style="fill:#a78bd8; stroke:none;" d="M81 101C81.5451 102.635 81.3648 102.455 83 103L83 101L81 101z"/>
<path style="fill:#543885; stroke:none;" d="M83 101C84.2483 101.685 84.5484 101.749 86 102C84.7517 101.315 84.4516 101.251 83 101z"/>
<path style="fill:#573888; stroke:none;" d="M87.6667 101.333C87.2222 101.778 88.2778 101.722 88.3333 101.667C88.7778 101.222 87.7222 101.278 87.6667 101.333z"/>
<path style="fill:#42217a; stroke:none;" d="M92 101L93 102L92 101z"/>
<path style="fill:#aa89e4; stroke:none;" d="M93 101L94 102L93 101z"/>
<path style="fill:#fbebff; stroke:none;" d="M99 101L100 102L99 101z"/>
<path style="fill:#361874; stroke:none;" d="M107 101C109.052 101.874 110.747 101.953 113 102C110.948 101.126 109.253 101.047 107 101z"/>
<path style="fill:#e5c2ff; stroke:none;" d="M113.333 101.667C113.278 101.722 113.222 102.778 113.667 102.333C113.722 102.278 113.778 101.222 113.333 101.667z"/>
<path style="fill:#7553a5; stroke:none;" d="M114 101L115 102L114 101z"/>
<path style="fill:#fff5ff; stroke:none;" d="M120 101L120 106C120.83 103.969 120.83 103.03 120 101z"/>
<path style="fill:#7864a7; stroke:none;" d="M125 101L125 103C126.635 102.455 126.455 102.635 127 101L125 101z"/>
<path style="fill:#572a9a; stroke:none;" d="M131 101C130.043 102.517 129.613 103.338 129 105C130.63 103.485 131.163 103.145 131 101z"/>
<path style="fill:#1e005a; stroke:none;" d="M136 101C136.768 102.314 136.686 102.232 138 103C137.278 105.418 137.052 107.472 137 110L140 108L141 101L136 101z"/>
<path style="fill:#16034a; stroke:none;" d="M52 102C52.6415 103.811 52.9493 105.092 53 107C56.3162 107 55.265 111.207 56 114C57.0154 112.861 57.3087 112.388 58 111L60 111C60.2752 115.048 59.4314 118.428 63 121C61.3959 124.208 62.3155 123.389 65 125L64 126C71.1628 123.149 69 112.382 69 106L71 106C71 112.864 66.9229 128.925 78 126L78 135C80.9885 132.906 81.5058 130.549 82 127C82.8892 130.231 82.6019 132.716 82 136C85.0939 135.097 87.7873 134.696 91 135L91 114L85 114C86.132 118.006 87.2853 122.209 89 126C83.6877 124.567 79.1513 121.203 75 126C70.7884 120.145 72 112.935 72 106C73.7227 106.934 75.1062 107.535 77 108C71.9344 102.827 62.2723 104.877 56 107C62.2446 102.086 71.9817 103.81 79 106C75.0707 98.8742 59.2324 102 52 102z"/>
<path style="fill:#d9baff; stroke:none;" d="M77 102L78 103L77 102z"/>
<path style="fill:#75549f; stroke:none;" d="M78 102L79 103L78 102z"/>
<path style="fill:#c7adf4; stroke:none;" d="M83 102C85.3316 102.985 87.4566 102.981 90 103C87.6685 102.015 85.5433 102.019 83 102z"/>
<path style="fill:#57368a; stroke:none;" d="M90 102L91 103L90 102z"/>
<path style="fill:#9a75d6; stroke:none;" d="M94 102L95 103L94 102z"/>
<path style="fill:#7c65a6; stroke:none;" d="M99 102L100 103L99 102z"/>
<path style="fill:#fbf0ff; stroke:none;" d="M100 102L100 132C102.395 126.293 101 118.154 101 112C101 108.581 101.328 105.166 100 102z"/>
<path style="fill:#432382; stroke:none;" d="M105 102C104.014 103.479 104 103.203 104 105C105.289 103.557 105.401 103.766 105 102z"/>
<path style="fill:#5e3f9d; stroke:none;" d="M106 102C108.332 102.985 110.457 102.981 113 103C110.668 102.015 108.543 102.019 106 102z"/>
<path style="fill:#a482d6; stroke:none;" d="M114 102L115 103L114 102z"/>
<path style="fill:#14004e; stroke:none;" d="M142 102C141.468 105.423 139.783 107.174 138 110C142.513 108.37 143.84 106.819 144 102L142 102z"/>
<path style="fill:#c7adf6; stroke:none;" d="M78 103L79 104L78 103z"/>
<path style="fill:#856ab2; stroke:none;" d="M79 103L80 104L79 103z"/>
<path style="fill:#4b307b; stroke:none;" d="M89 103L90 104L89 103z"/>
<path style="fill:#bf9ff0; stroke:none;" d="M90 103L91 104L90 103z"/>
<path style="fill:#624197; stroke:none;" d="M91 103L92 104L91 103z"/>
<path style="fill:#7c5ab9; stroke:none;" d="M95 103L96 104L95 103z"/>
<path style="fill:#6040a0; stroke:none;" d="M96.3333 103.667C96.2778 103.722 96.2222 104.778 96.6667 104.333C96.7222 104.278 96.7778 103.222 96.3333 103.667z"/>
<path style="fill:#231850; stroke:none;" d="M99 103C97.6827 112.001 99 121.867 99 131C101.604 124.793 101.604 109.207 99 103z"/>
<path style="fill:#491684; stroke:none;" d="M136 103L136 107C136.911 105.623 137.404 104.56 138 103L136 103z"/>
<path style="fill:#3b1779; stroke:none;" d="M61 104C58.858 104.834 57.4304 105.261 56 107C58.0359 106.442 61.9671 106.342 61 104z"/>
<path style="fill:#8858be; stroke:none;" d="M62 104C63.2483 104.685 63.5484 104.749 65 105C63.7517 104.315 63.4516 104.251 62 104z"/>
<path style="fill:#a372d8; stroke:none;" d="M65.6667 104.333C65.2222 104.778 66.2778 104.722 66.3333 104.667C66.7778 104.222 65.7222 104.278 65.6667 104.333z"/>
<path style="fill:#be99f7; stroke:none;" d="M67 104C69.6127 105.098 72.1645 104.993 75 105C72.3873 103.902 69.8355 104.007 67 104z"/>
<path style="fill:#533b87; stroke:none;" d="M75 104L76 105L75 104z"/>
<path style="fill:#a591d0; stroke:none;" d="M79.6667 104.333C79.2222 104.778 80.2778 104.722 80.3333 104.667C80.7778 104.222 79.7222 104.278 79.6667 104.333z"/>
<path style="fill:#b99beb; stroke:none;" d="M91 104L92 105L91 104z"/>
<path style="fill:#7051a8; stroke:none;" d="M92 104L93 105L92 104z"/>
<path style="fill:#442b88; stroke:none;" d="M97.3333 104.667C97.2778 104.722 97.2222 105.778 97.6667 105.333C97.7222 105.278 97.7778 104.222 97.3333 104.667z"/>
<path style="fill:#462083; stroke:none;" d="M108 104C110.89 105.213 113.874 104.998 117 105C114.11 103.787 111.126 104.002 108 104z"/>
<path style="fill:#c2a2ff; stroke:none;" d="M117 104L118 105L117 104z"/>
<path style="fill:#a284d5; stroke:none;" d="M128 104L129 105L128 104z"/>
<path style="fill:#433279; stroke:none;" d="M52.3333 105.667C52.2778 105.722 52.2222 106.778 52.6667 106.333C52.7222 106.278 52.7778 105.222 52.3333 105.667z"/>
<path style="fill:#d0b8ff; stroke:none;" d="M75 105L76 106L75 105z"/>
<path style="fill:#7b66ae; stroke:none;" d="M76 105L77 106L76 105z"/>
<path style="fill:#080032; stroke:none;" d="M79 105L78 106C81.4357 109.509 88.3628 110.988 93 113C90.0344 106.847 84.6741 107.405 79 105z"/>
<path style="fill:#d1bef5; stroke:none;" d="M80.6667 105.333C80.2222 105.778 81.2778 105.722 81.3333 105.667C81.7778 105.222 80.7222 105.278 80.6667 105.333z"/>
<path style="fill:#7c699f; stroke:none;" d="M82 105C84.3316 105.985 86.4566 105.981 89 106C86.6685 105.015 84.5433 105.019 82 105z"/>
<path style="fill:#9a7fd0; stroke:none;" d="M92 105C93.3303 106.753 94.2475 107.67 96 109C94.8465 106.751 94.2489 106.154 92 105z"/>
<path style="fill:#9078d0; stroke:none;" d="M107 105C106.014 106.479 106 106.203 106 108C107.289 106.557 107.401 106.766 107 105z"/>
<path style="fill:#c09fe2; stroke:none;" d="M108 105C110.89 106.213 113.874 105.998 117 106C114.11 104.787 111.126 105.002 108 105z"/>
<path style="fill:#5d4099; stroke:none;" d="M117 105L118 106L117 105z"/>
<path style="fill:#b09dde; stroke:none;" d="M123 105L124 106L123 105z"/>
<path style="fill:#c4aef9; stroke:none;" d="M127 105L128 106L127 105z"/>
<path style="fill:#694e9c; stroke:none;" d="M128 105L129 106L128 105z"/>
<path style="fill:#a26193; stroke:none;" d="M131.667 105.333C131.222 105.778 132.278 105.722 132.333 105.667C132.778 105.222 131.722 105.278 131.667 105.333z"/>
<path style="fill:#311a63; stroke:none;" d="M64.3333 106.667C64.2778 106.722 64.2222 107.778 64.6667 107.333C64.7222 107.278 64.7778 106.222 64.3333 106.667z"/>
<path style="fill:#d6bcff; stroke:none;" d="M65 106L65 108C66.6352 107.455 66.4549 107.635 67 106L65 106z"/>
<path style="fill:#d0b0fe; stroke:none;" d="M69 106L69 126C71.0866 121.027 71.0866 110.973 69 106z"/>
<path style="fill:#27045c; stroke:none;" d="M70 106L70 121C71.7404 116.852 71.7404 110.148 70 106z"/>
<path style="fill:#5e3b92; stroke:none;" d="M72.6667 106.333C72.2222 106.778 73.2778 106.722 73.3333 106.667C73.7778 106.222 72.7222 106.278 72.6667 106.333z"/>
<path style="fill:#d4b8ff; stroke:none;" d="M76 106L77 107L76 106z"/>
<path style="fill:#9a81cc; stroke:none;" d="M77 106L78 107L77 106z"/>
<path style="fill:#8e7db2; stroke:none;" d="M81 106L82 107L81 106z"/>
<path style="fill:#beade1; stroke:none;" d="M82 106C84.0521 106.874 85.7472 106.953 88 107C85.9479 106.126 84.2528 106.047 82 106z"/>
<path style="fill:#feebff; stroke:none;" d="M88 106L89 107L88 106z"/>
<path style="fill:#a590cd; stroke:none;" d="M89 106L90 107L89 106z"/>
<path style="fill:#00002d; stroke:none;" d="M104 134C107.35 126.017 100.253 110.34 111.996 107.318C113.908 106.826 116.047 107.007 118 107C100.685 99.7344 104 124.318 104 134z"/>
<path style="fill:#cbbaf1; stroke:none;" d="M119 106L118 108L120 108C120 106.147 120.3 106.65 119 106z"/>
<path style="fill:#76659a; stroke:none;" d="M120 106C121.54 107.803 122.598 107.832 125 108C123.352 107.076 121.825 106.551 120 106z"/>
<path style="fill:#dbc6ff; stroke:none;" d="M126 106L127 107L126 106z"/>
<path style="fill:#725ea5; stroke:none;" d="M127 106L128 107L127 106z"/>
<path style="fill:#bd617c; stroke:none;" d="M131 106L131 108L133 108L133 106L131 106z"/>
<path style="fill:#964660; stroke:none;" d="M133 106L134 107L133 106z"/>
<path style="fill:#593695; stroke:none;" d="M139 106L140 107L139 106z"/>
<path style="fill:#b274e5; stroke:none;" d="M140 106L141 107L140 106z"/>
<path style="fill:#5a2d8b; stroke:none;" d="M144 106L144 109C144.696 107.446 144.696 107.554 144 106z"/>
<path style="fill:#aa8fd9; stroke:none;" d="M66 107L67 108L66 107z"/>
<path style="fill:#7c61b0; stroke:none;" d="M72 107L72 124L74 124C73.5355 118.115 73.7476 112.879 74 107L72 107z"/>
<path style="fill:#bea9f1; stroke:none;" d="M77 107C78.1034 108.457 78.5434 108.897 80 110C79.1007 107.876 79.1236 107.899 77 107z"/>
<path style="fill:#bdabe9; stroke:none;" d="M89 107C90.2228 108.195 90.42 108.316 92 109C90.7772 107.805 90.58 107.684 89 107z"/>
<path style="fill:#bdaef1; stroke:none;" d="M105 107L106 108L105 107z"/>
<path style="fill:#39256b; stroke:none;" d="M109 107L110 108L109 107z"/>
<path style="fill:#937eb5; stroke:none;" d="M110 107C112.613 108.098 115.165 107.993 118 108C115.387 106.902 112.836 107.007 110 107z"/>
<path style="fill:#fff0ff; stroke:none;" d="M125 107L126 108L125 107z"/>
<path style="fill:#6b589a; stroke:none;" d="M126 107L127 108L126 107z"/>
<path style="fill:#631a38; stroke:none;" d="M133 107L134 108L133 107z"/>
<path style="fill:#633590; stroke:none;" d="M136 107L136 110C136.696 108.446 136.696 108.554 136 107z"/>
<path style="fill:#6c2e9a; stroke:none;" d="M140 107L141 108L140 107z"/>
<path style="fill:#110641; stroke:none;" d="M74 108L74 124C78.3337 121.927 81.8981 124.86 85.6667 123.339C91.8254 120.852 82.2035 114.122 80 113L84 112C80.8217 110.023 77.7172 108.53 74 108z"/>
<path style="fill:#d6cbff; stroke:none;" d="M96 108L97 109L96 108z"/>
<path style="fill:#cec5f9; stroke:none;" d="M104 108L105 109L104 108z"/>
<path style="fill:#897fb6; stroke:none;" d="M105 108L106 109L105 108z"/>
<path style="fill:#4d437d; stroke:none;" d="M108 108L109 109L108 108z"/>
<path style="fill:#ffffff; stroke:none;" d="M109 108C107.814 109.186 107.472 109.584 107 111C108.548 109.738 108.808 109.806 109 108z"/>
<path style="fill:#b2a0d3; stroke:none;" d="M110 108C114.471 109.876 120.183 109 125 109C120.529 107.124 114.817 108 110 108z"/>
<path style="fill:#52407c; stroke:none;" d="M125 108L126 109L125 108z"/>
<path style="fill:#31106c; stroke:none;" d="M142.667 108.333C142.222 108.778 143.278 108.722 143.333 108.667C143.778 108.222 142.722 108.278 142.667 108.333z"/>
<path style="fill:#3e1a83; stroke:none;" d="M59 109C60.2483 109.685 60.5484 109.749 62 110C62.0156 114.421 61.8492 117.711 66 120C64.6019 116.359 63.7256 112.835 63 109L59 109z"/>
<path style="fill:#ffffff; stroke:none;" d="M80 109C82.3316 109.985 84.4566 109.981 87 110C84.6685 109.015 82.5433 109.019 80 109z"/>
<path style="fill:#c4bef4; stroke:none;" d="M87 109C87.8993 111.124 87.8764 111.101 90 112C88.8966 110.543 88.4566 110.103 87 109z"/>
<path style="fill:#897bb7; stroke:none;" d="M91 109L92 110L91 109z"/>
<path style="fill:#fff7ff; stroke:none;" d="M92 109L93 110L92 109z"/>
<path style="fill:#7d71af; stroke:none;" d="M96 109L97 110L96 109z"/>
<path style="fill:#fef3ff; stroke:none;" d="M97 109L98 110L97 109z"/>
<path style="fill:#312555; stroke:none;" d="M102 109L103 110L102 109z"/>
<path style="fill:#fbf0ff; stroke:none;" d="M103 109L104 110L103 109z"/>
<path style="fill:#897daf; stroke:none;" d="M104 109L105 110L104 109z"/>
<path style="fill:#5c5588; stroke:none;" d="M107 109L108 110L107 109z"/>
<path style="fill:#413b6f; stroke:none;" d="M109 109L110 110L109 109z"/>
<path style="fill:#00001c; stroke:none;" d="M107 114C113.985 109.606 119.965 110 128 110C121.817 107.406 110.269 107.519 107 114z"/>
<path style="fill:#8f72c3; stroke:none;" d="M139.667 109.333C139.222 109.778 140.278 109.722 140.333 109.667C140.778 109.222 139.722 109.278 139.667 109.333z"/>
<path style="fill:#6841a1; stroke:none;" d="M141 109C142.248 109.685 142.548 109.749 144 110C142.752 109.315 142.452 109.251 141 109z"/>
<path style="fill:#000025; stroke:none;" d="M80 110C82.5349 111.139 85.2557 111.482 88 112C85.4401 110.058 83.1922 110.035 80 110z"/>
<path style="fill:#5d528b; stroke:none;" d="M92 110L93 111L92 110z"/>
<path style="fill:#ffffff; stroke:none;" d="M93 110L94 111L93 110z"/>
<path style="fill:#5a4c88; stroke:none;" d="M94 110L95 111L94 110z"/>
<path style="fill:#000028; stroke:none;" d="M95 110C96.5507 116.513 96 123.341 96 130C97.8445 125.604 98.7604 113.286 95 110z"/>
<path style="fill:#a698d6; stroke:none;" d="M97 110C98.7674 117.423 98 125.407 98 133C99.964 128.319 100.97 113.469 97 110z"/>
<path style="fill:#000010; stroke:none;" d="M101 110L101 133C103.284 127.557 103.284 115.443 101 110z"/>
<path style="fill:#f9f2ff; stroke:none;" d="M102 110L102 131C104.153 125.869 104.153 115.131 102 110z"/>
<path style="fill:#84729f; stroke:none;" d="M103 110L104 111L103 110z"/>
<path style="fill:#615481; stroke:none;" d="M106 110L107 111L106 110z"/>
<path style="fill:#30285d; stroke:none;" d="M108 110L109 111L108 110z"/>
<path style="fill:#b4a5ca; stroke:none;" d="M111 110C117.202 112.603 126.298 111 133 111C126.798 108.397 117.702 110 111 110z"/>
<path style="fill:#a477ca; stroke:none;" d="M133 110C135.18 111.187 136.514 111.234 139 111C136.948 110.126 135.253 110.047 133 110z"/>
<path style="fill:#3e2777; stroke:none;" d="M139 110L140 111L139 110z"/>
<path style="fill:#1c105c; stroke:none;" d="M75 111C75.4824 113.364 75.636 113.518 78 114C78 112.203 77.9857 112.479 77 111L75 111z"/>
<path style="fill:#16005d; stroke:none;" d="M80 113C82.9047 113.894 85.9476 113.129 89 113C85.7711 111.162 83.3711 111.648 80 113z"/>
<path style="fill:#453a78; stroke:none;" d="M93 111L94 112L93 111z"/>
<path style="fill:#fff6ff; stroke:none;" d="M94 111L95 112L94 111z"/>
<path style="fill:#918bbd; stroke:none;" d="M95 111C93.0531 117.587 94 125.161 94 132L96 132C96 125.564 97.5005 116.959 95 111z"/>
<path style="fill:#8274bb; stroke:none;" d="M97 111L97 132C99.153 126.869 99.153 116.131 97 111z"/>
<path style="fill:#3a345c; stroke:none;" d="M103 111L103 128C104.883 123.514 104.883 115.486 103 111z"/>
<path style="fill:#8d7bb1; stroke:none;" d="M105 111L106 112L105 111z"/>
<path style="fill:#fffaff; stroke:none;" d="M106 111L107 112L106 111z"/>
<path style="fill:#382c5a; stroke:none;" d="M107 111L108 112L107 111z"/>
<path style="fill:#cfc3f5; stroke:none;" d="M108 114C109.949 113.064 110.55 112.608 112 111C110.051 111.936 109.45 112.392 108 114z"/>
<path style="fill:#79718e; stroke:none;" d="M112 111C117.222 113.191 124.368 112 130 112C124.778 109.809 117.632 111 112 111z"/>
<path style="fill:#6a53a0; stroke:none;" d="M130 111C132.052 111.874 133.747 111.953 136 112C133.948 111.126 132.253 111.047 130 111z"/>
<path style="fill:#653996; stroke:none;" d="M137 111L138 112L137 111z"/>
<path style="fill:#3d1b7f; stroke:none;" d="M54.3333 112.667C54.2778 112.722 54.2222 113.778 54.6667 113.333C54.7222 113.278 54.7778 112.222 54.3333 112.667z"/>
<path style="fill:#6238a4; stroke:none;" d="M55.3333 112.667C55.2778 112.722 55.2222 113.778 55.6667 113.333C55.7222 113.278 55.7778 112.222 55.3333 112.667z"/>
<path style="fill:#852d5a; stroke:none;" d="M59 112L60 113L59 112z"/>
<path style="fill:#6e549d; stroke:none;" d="M73 112L73 120C74.1614 117.23 74.1614 114.77 73 112z"/>
<path style="fill:#9175bb; stroke:none;" d="M89 112L90 113L89 112z"/>
<path style="fill:#fff5ff; stroke:none;" d="M90 112L91 113L90 112z"/>
<path style="fill:#000021; stroke:none;" d="M93 112L93 129C94.8826 124.514 94.8826 116.486 93 112z"/>
<path style="fill:#ffffff; stroke:none;" d="M105 112L105 130C106.952 125.349 106.952 116.651 105 112z"/>
<path style="fill:#080037; stroke:none;" d="M106 112L106 135C108.284 129.557 108.284 117.443 106 112z"/>
<path style="fill:#010020; stroke:none;" d="M111 112C116.469 114.295 124.099 113 130 113C124.531 110.705 116.901 112 111 112z"/>
<path style="fill:#593686; stroke:none;" d="M136 112L137 113L136 112z"/>
<path style="fill:#2f1671; stroke:none;" d="M144.333 112.667C144.278 112.722 144.222 113.778 144.667 113.333C144.722 113.278 144.778 112.222 144.333 112.667z"/>
<path style="fill:#5e42a4; stroke:none;" d="M145.333 112.667C145.278 112.722 145.222 113.778 145.667 113.333C145.722 113.278 145.778 112.222 145.333 112.667z"/>
<path style="fill:#311972; stroke:none;" d="M146.333 112.667C146.278 112.722 146.222 113.778 146.667 113.333C146.722 113.278 146.778 112.222 146.333 112.667z"/>
<path style="fill:#9568ac; stroke:none;" d="M59 113L59 115C60.6351 114.455 60.4549 114.635 61 113L59 113z"/>
<path style="fill:#411f6e; stroke:none;" d="M83 115L90 114C87.266 112.86 85.0026 112.707 83 115z"/>
<path style="fill:#a994cb; stroke:none;" d="M90 113L91 114L90 113z"/>
<path style="fill:#ffffff; stroke:none;" d="M91 113L92 114L91 113z"/>
<path style="fill:#53418b; stroke:none;" d="M92 113L93 114L92 113z"/>
<path style="fill:#806ca9; stroke:none;" d="M109 114C112.233 115.274 115.622 114.638 119 114C115.651 112.595 112.436 112.985 109 114z"/>
<path style="fill:#726095; stroke:none;" d="M119 113C122.462 115.167 127.091 114.879 131 114C127.303 112.448 122.983 113 119 113z"/>
<path style="fill:#ceb4f3; stroke:none;" d="M136.333 113.667C136.278 113.722 136.222 114.778 136.667 114.333C136.722 114.278 136.778 113.222 136.333 113.667z"/>
<path style="fill:#ab92d2; stroke:none;" d="M137.333 113.667C137.278 113.722 137.222 114.778 137.667 114.333C137.722 114.278 137.778 113.222 137.333 113.667z"/>
<path style="fill:#371876; stroke:none;" d="M65.3333 114.667C65.2778 114.722 65.2222 115.778 65.6667 115.333C65.7222 115.278 65.7778 114.222 65.3333 114.667z"/>
<path style="fill:#5f39a5; stroke:none;" d="M66.3333 114.667C66.2778 114.722 66.2222 115.778 66.6667 115.333C66.7222 115.278 66.7778 114.222 66.3333 114.667z"/>
<path style="fill:#36107a; stroke:none;" d="M67.3333 114.667C67.2778 114.722 67.2222 115.778 67.6667 115.333C67.7222 115.278 67.7778 114.222 67.3333 114.667z"/>
<path style="fill:#716298; stroke:none;" d="M91 114L91 126C92.5124 122.396 92.5124 117.604 91 114z"/>
<path style="fill:#cdb5f5; stroke:none;" d="M92 114L92 130C93.8123 125.681 93.8123 118.319 92 114z"/>
<path style="fill:#504185; stroke:none;" d="M107 114L107 131C108.883 126.514 108.883 118.486 107 114z"/>
<path style="fill:#e6d7ff; stroke:none;" d="M108 114L108 131C109.883 126.514 109.883 118.486 108 114z"/>
<path style="fill:#9884be; stroke:none;" d="M114 114C115.248 114.685 115.548 114.749 117 115C115.752 114.315 115.452 114.251 114 114z"/>
<path style="fill:#c9bdea; stroke:none;" d="M118 114C119.248 114.685 119.548 114.749 121 115C119.752 114.315 119.452 114.251 118 114z"/>
<path style="fill:#e4d4ff; stroke:none;" d="M123 114L124 115L123 114z"/>
<path style="fill:#8a79aa; stroke:none;" d="M124.667 114.333C124.222 114.778 125.278 114.722 125.333 114.667C125.778 114.222 124.722 114.278 124.667 114.333z"/>
<path style="fill:#e3cfff; stroke:none;" d="M126 114L127 115L126 114z"/>
<path style="fill:#b39ce7; stroke:none;" d="M130.667 114.333C130.222 114.778 131.278 114.722 131.333 114.667C131.778 114.222 130.722 114.278 130.667 114.333z"/>
<path style="fill:#653b9c; stroke:none;" d="M59 115L59 120C59.8299 117.97 59.8299 117.03 59 115z"/>
<path style="fill:#0a0034; stroke:none;" d="M109 115L109 119C113.15 118.985 116.544 119.387 118 115L109 115z"/>
<path style="fill:#ad9ddf; stroke:none;" d="M118 115L118 118C118.696 116.446 118.696 116.554 118 115z"/>
<path style="fill:#3e2a72; stroke:none;" d="M119 115L119 131C120.812 126.681 120.812 119.319 119 115z"/>
<path style="fill:#8376ad; stroke:none;" d="M120 115L120 120C120.83 117.97 120.83 117.03 120 115z"/>
<path style="fill:#00002c; stroke:none;" d="M121 115L121 122L123 122L123 115L121 115z"/>
<path style="fill:#b0a1d9; stroke:none;" d="M123 115L123 120C123.83 117.97 123.83 117.03 123 115z"/>
<path style="fill:#0a0039; stroke:none;" d="M124 115C124.572 117.377 124.89 119.558 125 122C126.14 119.266 126.293 117.003 124 115z"/>
<path style="fill:#ad99de; stroke:none;" d="M126 115L126 120C126.83 117.97 126.83 117.03 126 115z"/>
<path style="fill:#6c4ba1; stroke:none;" d="M130 115L130 121C130.951 118.715 130.951 117.285 130 115z"/>
<path style="fill:#170050; stroke:none;" d="M131 115C131.202 121.184 133.816 123.84 140 122C138.647 117.905 134.607 116.999 131 115z"/>
<path style="fill:#997dd1; stroke:none;" d="M132 115L133 116L132 115z"/>
<path style="fill:#5e3c93; stroke:none;" d="M133 115L134 116L133 115z"/>
<path style="fill:#230a56; stroke:none;" d="M110 116L110 118L117 118L117 116L110 116z"/>
<path style="fill:#19004f; stroke:none;" d="M124 116C124 121.841 121.59 132.423 128 135C125.401 128.865 126.704 122.024 124 116z"/>
<path style="fill:#936ed5; stroke:none;" d="M133 116L134 117L133 116z"/>
<path style="fill:#805bbd; stroke:none;" d="M134 116C135.54 117.803 136.598 117.832 139 118C137.352 117.076 135.825 116.551 134 116z"/>
<path style="fill:#6546a2; stroke:none;" d="M140 116L141 117L140 116z"/>
<path style="fill:#58329e; stroke:none;" d="M88 117L88 119L90 119L90 117L88 117z"/>
<path style="fill:#c8a9ff; stroke:none;" d="M139.667 117.333C139.222 117.778 140.278 117.722 140.333 117.667C140.778 117.222 139.722 117.278 139.667 117.333z"/>
<path style="fill:#ffffff; stroke:none;" d="M83 118C83.9802 119.783 83.9076 119.594 86 120C84.7772 118.805 84.58 118.684 83 118z"/>
<path style="fill:#9b8bc2; stroke:none;" d="M85 118L86 119L85 118z"/>
<path style="fill:#917dc2; stroke:none;" d="M109 119C112.349 120.405 115.564 120.015 119 119C115.829 118.238 112.306 118.973 109 119z"/>
<path style="fill:#4a347b; stroke:none;" d="M139.667 118.333C139.222 118.778 140.278 118.722 140.333 118.667C140.778 118.222 139.722 118.278 139.667 118.333z"/>
<path style="fill:#8f396c; stroke:none;" d="M58.3333 120.667C58.2778 120.722 58.2222 121.778 58.6667 121.333C58.7222 121.278 58.7778 120.222 58.3333 120.667z"/>
<path style="fill:#c6649b; stroke:none;" d="M59.3333 120.667C59.2778 120.722 59.2222 121.778 59.6667 121.333C59.7222 121.278 59.7778 120.222 59.3333 120.667z"/>
<path style="fill:#471065; stroke:none;" d="M60 120C60.9802 121.783 60.9076 121.594 63 122C61.7772 120.805 61.58 120.684 60 120z"/>
<path style="fill:#543191; stroke:none;" d="M66 120L67 121L66 120z"/>
<path style="fill:#8e88b5; stroke:none;" d="M83 120L84 121L83 120z"/>
<path style="fill:#c8bde8; stroke:none;" d="M84 120L85 121L84 120z"/>
<path style="fill:#413560; stroke:none;" d="M85 120L86 121L85 120z"/>
<path style="fill:#4c3978; stroke:none;" d="M109 120C111.613 121.098 114.165 120.993 117 121C114.387 119.902 111.835 120.007 109 120z"/>
<path style="fill:#4e2682; stroke:none;" d="M120 120L120 136C121.812 131.681 121.812 124.319 120 120z"/>
<path style="fill:#8970bd; stroke:none;" d="M123 120L123 124C123.71 122.241 123.71 121.759 123 120z"/>
<path style="fill:#957fc7; stroke:none;" d="M126 120L126 123C126.696 121.446 126.696 121.554 126 120z"/>
<path style="fill:#3c1e82; stroke:none;" d="M136 120L136 122L138 122L138 120L136 120z"/>
<path style="fill:#8a7bc3; stroke:none;" d="M77 121C78.2484 121.685 78.5484 121.749 80 122C78.7517 121.315 78.4516 121.251 77 121z"/>
<path style="fill:#705aab; stroke:none;" d="M131 121L132 122L131 121z"/>
<path style="fill:#493480; stroke:none;" d="M63 122L64 123L63 122z"/>
<path style="fill:#a38ade; stroke:none;" d="M76 122L77 123L76 122z"/>
<path style="fill:#5c4399; stroke:none;" d="M77 122L78 123L77 122z"/>
<path style="fill:#9071d1; stroke:none;" d="M80 122L81 123L80 122z"/>
<path style="fill:#26126a; stroke:none;" d="M132 122C133.477 124.323 134.894 126.487 136 129C137.138 125.38 135.145 123.584 132 122z"/>
<path style="fill:#c9aefb; stroke:none;" d="M75 123L76 124L75 123z"/>
<path style="fill:#50378c; stroke:none;" d="M76 123L77 124L76 123z"/>
<path style="fill:#926acd; stroke:none;" d="M81 123L82 124L81 123z"/>
<path style="fill:#69489e; stroke:none;" d="M126 123L126 128C126.83 125.97 126.83 125.03 126 123z"/>
<path style="fill:#debcff; stroke:none;" d="M73.6667 124.333C73.2222 124.778 74.2778 124.722 74.3333 124.667C74.7778 124.222 73.7222 124.278 73.6667 124.333z"/>
<path style="fill:#76579e; stroke:none;" d="M75 124L76 125L75 124z"/>
<path style="fill:#874f8f; stroke:none;" d="M82 124C83.7691 124.779 85.0359 124.912 87 125C85.231 124.221 83.9641 124.088 82 124z"/>
<path style="fill:#a56aa8; stroke:none;" d="M87.3333 124.667C87.2778 124.722 87.2222 125.778 87.6667 125.333C87.7222 125.278 87.7778 124.222 87.3333 124.667z"/>
<path style="fill:#6e3277; stroke:none;" d="M88.3333 124.667C88.2778 124.722 88.2223 125.778 88.6667 125.333C88.7222 125.278 88.7778 124.222 88.3333 124.667z"/>
<path style="fill:#aa9cce; stroke:none;" d="M113.667 124.333C113.222 124.778 114.278 124.722 114.333 124.667C114.778 124.222 113.722 124.278 113.667 124.333z"/>
<path style="fill:#6951ab; stroke:none;" d="M123 124L123 133C124.256 130.006 124.256 126.994 123 124z"/>
<path style="fill:#3c1572; stroke:none;" d="M66 125L66 132C67.0595 129.466 67.0595 127.534 66 125z"/>
<path style="fill:#7356ab; stroke:none;" d="M70 125L71 126L70 125z"/>
<path style="fill:#9d7bbf; stroke:none;" d="M74 125L75 126L74 125z"/>
<path style="fill:#504671; stroke:none;" d="M112.333 125.667C112.278 125.722 112.222 126.778 112.667 126.333C112.722 126.278 112.778 125.222 112.333 125.667z"/>
<path style="fill:#ffffff; stroke:none;" d="M113 125L113 127L115 127L115 125L113 125z"/>
<path style="fill:#897ab4; stroke:none;" d="M115.333 125.667C115.278 125.722 115.222 126.778 115.667 126.333C115.722 126.278 115.778 125.222 115.333 125.667z"/>
<path style="fill:#1e0358; stroke:none;" d="M67 126C66.8826 128.73 66.5008 131.314 66 134C68.2025 131.297 68.9297 129.008 67 126z"/>
<path style="fill:#c7abf8; stroke:none;" d="M70 126L71 127L70 126z"/>
<path style="fill:#8e6ebf; stroke:none;" d="M71 126L72 127L71 126z"/>
<path style="fill:#4e337e; stroke:none;" d="M77 126L78 127L77 126z"/>
<path style="fill:#56458b; stroke:none;" d="M91 126L91 146C93.0866 141.027 93.0866 130.973 91 126z"/>
<path style="fill:#b6a0e7; stroke:none;" d="M71 127C73.0521 127.874 74.7472 127.953 77 128C74.9479 127.126 73.2528 127.047 71 127z"/>
<path style="fill:#ffe6ff; stroke:none;" d="M77 127L78 128L77 127z"/>
<path style="fill:#340f76; stroke:none;" d="M82 127L81 132C82.8793 130.377 82.9157 129.3 82 127z"/>
<path style="fill:#5e5085; stroke:none;" d="M113.667 127.333C113.222 127.778 114.278 127.722 114.333 127.667C114.778 127.222 113.722 127.278 113.667 127.333z"/>
<path style="fill:#2f1865; stroke:none;" d="M62.3333 128.667C62.2778 128.722 62.2222 129.778 62.6667 129.333C62.7223 129.278 62.7778 128.222 62.3333 128.667z"/>
<path style="fill:#452f7b; stroke:none;" d="M72 128C73.506 128.683 74.3148 128.826 76 129C74.4939 128.317 73.6852 128.174 72 128z"/>
<path style="fill:#8367ad; stroke:none;" d="M76 128L77 129L76 128z"/>
<path style="fill:#b495de; stroke:none;" d="M77 128L78 129L77 128z"/>
<path style="fill:#3c1b6e; stroke:none;" d="M103 128L103 146C104.952 141.349 104.952 132.651 103 128z"/>
<path style="fill:#48278c; stroke:none;" d="M126 128L126 133C126.83 130.97 126.83 130.03 126 128z"/>
<path style="fill:#26002e; stroke:none;" d="M75 130C76.3411 131.274 77.4031 132.041 79 133L78 129C76.2032 129 76.4785 129.014 75 130z"/>
<path style="fill:#290968; stroke:none;" d="M86 133L89 131C86.8603 129.882 86.4732 130.749 86 133z"/>
<path style="fill:#9c7ed1; stroke:none;" d="M92 130L92 146C93.8123 141.681 93.8123 134.319 92 130z"/>
<path style="fill:#cba8ff; stroke:none;" d="M105 130L105 146C106.812 141.681 106.812 134.319 105 130z"/>
<path style="fill:#1e0061; stroke:none;" d="M118 130L116 131C117.482 131.791 118.796 131.87 118 130z"/>
<path style="fill:#56235a; stroke:none;" d="M75 131L76 132L75 131z"/>
<path style="fill:#de5b9c; stroke:none;" d="M76 131C75.0143 132.479 75 132.203 75 134C76.58 133.316 76.7772 133.195 78 132L76 131z"/>
<path style="fill:#59389b; stroke:none;" d="M87 131L87 133L89 133L89 131L87 131z"/>
<path style="fill:#25085a; stroke:none;" d="M99 131L99 147C100.812 142.681 100.812 135.319 99 131z"/>
<path style="fill:#ceacff; stroke:none;" d="M102 131L102 146C103.74 141.852 103.74 135.148 102 131z"/>
<path style="fill:#492c81; stroke:none;" d="M107 131L107 146C108.74 141.852 108.74 135.148 107 131z"/>
<path style="fill:#9b84d2; stroke:none;" d="M108 131L108 146C109.74 141.852 109.74 135.148 108 131z"/>
<path style="fill:#380e76; stroke:none;" d="M119 131C118.014 132.479 118 132.203 118 134C119.766 133.021 119.955 132.778 119 131z"/>
<path style="fill:#5b3d99; stroke:none;" d="M81 132L81 134L83 134L83 132L81 132z"/>
<path style="fill:#7b57b3; stroke:none;" d="M94 132L94 146L96 146L96 132L94 132z"/>
<path style="fill:#684ca0; stroke:none;" d="M97 132L97 146C98.6668 142.028 98.6668 135.972 97 132z"/>
<path style="fill:#b899e8; stroke:none;" d="M100 132L100 146C101.667 142.028 101.667 135.972 100 132z"/>
<path style="fill:#4c1c95; stroke:none;" d="M116 132L116 135L118 135L118 132L116 132z"/>
<path style="fill:#8473b9; stroke:none;" d="M127 132L127 134L129 134L129 132L127 132z"/>
<path style="fill:#791554; stroke:none;" d="M77 133L78 134L77 133z"/>
<path style="fill:#8468bc; stroke:none;" d="M98 133L98 146C99.5909 142.209 99.5909 136.791 98 133z"/>
<path style="fill:#000032; stroke:none;" d="M101 133L101 147C102.667 143.028 102.667 136.972 101 133z"/>
<path style="fill:#ba8de2; stroke:none;" d="M123 133L124 134L123 133z"/>
<path style="fill:#69489a; stroke:none;" d="M122 134L123 135L122 134z"/>
<path style="fill:#edcbff; stroke:none;" d="M123 134L124 135L123 134z"/>
<path style="fill:#9078c2; stroke:none;" d="M124 134L125 135L124 134z"/>
<path style="fill:#866abb; stroke:none;" d="M123 135L124 136L123 135z"/>
<path style="fill:#7e4382; stroke:none;" d="M119.667 136.333C119.222 136.778 120.278 136.722 120.333 136.667C120.778 136.222 119.722 136.278 119.667 136.333z"/>
<path style="fill:#b372ae; stroke:none;" d="M119.667 137.333C119.222 137.778 120.278 137.722 120.333 137.667C120.778 137.222 119.722 137.278 119.667 137.333z"/>
<path style="fill:#5a2c62; stroke:none;" d="M119.667 138.333C119.222 138.778 120.278 138.722 120.333 138.667C120.778 138.222 119.722 138.278 119.667 138.333z"/>
<path style="fill:#533d86; stroke:none;" d="M92 146L93 147L92 146z"/>
<path style="fill:#412b74; stroke:none;" d="M94.6667 146.333C94.2223 146.778 95.2778 146.722 95.3333 146.667C95.7778 146.222 94.7222 146.278 94.6667 146.333z"/>
<path style="fill:#3e2871; stroke:none;" d="M97.6667 146.333C97.2223 146.778 98.2778 146.722 98.3333 146.667C98.7778 146.222 97.7222 146.278 97.6667 146.333z"/>
<path style="fill:#654c99; stroke:none;" d="M100 146L101 147L100 146z"/>
<path style="fill:#6a51a0; stroke:none;" d="M102 146L103 147L102 146z"/>
<path style="fill:#6a539c; stroke:none;" d="M105 146L106 147L105 146z"/>
<path style="fill:#574889; stroke:none;" d="M108 146L109 147L108 146z"/>
</svg>
